<svg xmlns="http://www.w3.org/2000/svg" viewBox="0 0 208.61 184.13"><g id="Layer_2" data-name="Layer 2"><g id="OBJECTS"><path d="M180.72,76c-3.71,1.69-7.45,3.3-11.12,5.07a34.34,34.34,0,0,0-17.22,18.51,84,84,0,0,0-6,25.19c-.94,11.38-1.86,22.77-2.93,34.14-.43,4.68-1.22,9.34-1.85,14-.13,1-.34,1.9-1.43,2.25-2.07-.83-4.18-.58-6.3-.27h-.42c-1.25-.08-2.51-.25-3.76-.22-3,.08-6.11.24-9.16.37A2.47,2.47,0,0,1,119,173c-.69-4.21-1.41-8.41-2.11-12.62-.11-.65-.21-1.31-.32-2-1.37.28-2.63.48-3.84.82-.23.06-.38.68-.43,1.06-.48,4.36-.93,8.72-1.39,13.08a3.2,3.2,0,0,1-1.89,2.83l-5.65.29h-.59l-12.14.25a13.39,13.39,0,0,1-1.56-3.12c-.76-3.59-1.32-7.23-2-10.85-.08-.47-.19-.93-.33-1.63l-31.17-.4c-1,3.8-2,7.65-3,11.5-.45,1.74-.7,3.58-2.58,4.48l-5.46-.21-.77-.21-11.38-1.58-.06-.09-.18-.32a11.94,11.94,0,0,1-1.24-2.37c-1-3.82-2-7.66-2.9-11.5-.19-.76-.52-1-1.35-.9a26.39,26.39,0,0,1-3.32.4c-.81.06-1.15.38-1.31,1.21a39.89,39.89,0,0,0,0,11.34c.16,1.61-.06,3-1.6,3.92a20.76,20.76,0,0,1-3.43.1c-2.71-.35-5.4-.85-8.1-1.29-1.29-.21-2.61-.37-3.55-1.44-.23-2.22-.44-4.45-.68-6.67-.54-5-1-9.94-1.63-14.89-.8-6.55-1.75-13.08-2.53-19.63-1.43-11.83.62-23.1,5.1-34.12,6.62-16.25,17.7-28.75,31.67-38.93A421.25,421.25,0,0,1,81.63,31.2c7.4-4.07,15.21-7.08,23-10.11a115.49,115.49,0,0,1,22.08-6.39c.2,0,.39-.1.7-.18-.37-.79-.73-1.53-1.06-2.27A9.54,9.54,0,0,1,127.22,3c1.53-2.52,4.85-3.5,8.35-2.69,3.94.91,7.06,4.8,7.46,9.3.05.51.08,1,.13,1.68,1.35-.2,2.63-.43,3.91-.56a44.71,44.71,0,0,1,14.32.67c1.1.25,1.69.09,2.19-1a12.73,12.73,0,0,1,6.09-6.38c3.14-1.6,5.87-1.34,8.06.83,2.58,2.54,3.32,5.89,1.73,8.86a56.74,56.74,0,0,1-3.34,4.88c-.05-.2-.06-.1,0-.06,3.81,3.35,5.71,7.71,6.55,12.61.6,3.46,1.08,7,2.66,10.15a11.35,11.35,0,0,0-.8,1c-5.06,8.18-6.61,17.1-5.36,26.54C179.48,71.22,180.19,73.6,180.72,76ZM138.86,58.83c.25,3.8,3.09,7.22,6.52,7.59s6.61-1.75,8.35-5.62A7.44,7.44,0,0,0,151.89,52c-3.37-3.05-9.55-2.22-11.4,1.67A36.12,36.12,0,0,0,138.86,58.83Zm22.11-9c.36,0,.72,0,1.07,0a3.8,3.8,0,0,0,.58-.15c3-.81,4.54-3.07,5.35-5.88.37-1.27.91-2.6.08-3.92-.53-.85-1.31-1.1-2-.4a9,9,0,0,0-1.39,2.29c-.4.82-.58,1.75-1,2.53a2.94,2.94,0,0,1-2.77,1.75,3.09,3.09,0,0,1-2.69-1.87c-.29-.52-.55-1.06-.8-1.6-.33-.71-.81-1.24-1.65-1.08a1.48,1.48,0,0,0-1.15,1.73C154.82,47,157.65,50,161,49.84ZM138.7,11.42a44.75,44.75,0,0,0-1.45-4.87,3.63,3.63,0,0,0-3.56-2.15,3.78,3.78,0,0,0-3.21,3.12,7.66,7.66,0,0,0,1.39,6.24,3.57,3.57,0,0,0,3.5,1.63C137.77,15,138.41,14.14,138.7,11.42ZM120.34,32.14l0,.14a25.18,25.18,0,0,0,3.56-.94,2.16,2.16,0,0,0,1-1.53,1.78,1.78,0,0,0-.83-1.51,7,7,0,0,0-5.76.58,2,2,0,0,0-.7,1.82c.13.54.9,1,1.47,1.35C119.46,32.23,119.94,32.12,120.34,32.14ZM84.91,96.21c-.29-.44-.5-1.07-.91-1.25a1.68,1.68,0,0,0-1.52.15,11,11,0,0,0-3.41,5.38,1.86,1.86,0,0,0,.61,1.54,1.64,1.64,0,0,0,1.55,0C83.13,100.58,84.06,98.51,84.91,96.21Zm27.6,28.28c-.19-1.07-.61-1.95-1.34-1.91a2.43,2.43,0,0,0-1.83.92,21.21,21.21,0,0,0-1.45,4.9,2.24,2.24,0,0,0,1.11,1.83c.39.18,1.53-.42,1.77-.93A47.52,47.52,0,0,0,112.51,124.49ZM77.1,120.84c-.46-.65-.73-1.35-1.23-1.62a1.7,1.7,0,0,0-1.6.2,7.2,7.2,0,0,0-1.94,5.46,2,2,0,0,0,1.17,1.44,1.9,1.9,0,0,0,1.63-.79C75.9,124.07,76.43,122.49,77.1,120.84Zm56.1,1.22c-.36-.56-.62-1.47-1.17-1.72-.93-.41-1.6.41-1.88,1.22A36.44,36.44,0,0,0,128.9,126a1.61,1.61,0,0,0,1,2,1.74,1.74,0,0,0,2-1.38C132.42,125.27,132.74,123.79,133.2,122.06Zm-25.7-66c0-1.31-1.13-2-2-1.21a29.84,29.84,0,0,0-3.71,4.29,1.73,1.73,0,0,0,.15,1.68,1.94,1.94,0,0,0,1.82,0,44,44,0,0,0,3.43-3.91A2.2,2.2,0,0,0,107.5,56.1ZM53,148.42a11.33,11.33,0,0,0-.65-2.37,1.13,1.13,0,0,0-2.09,0,8.82,8.82,0,0,0-.7,5.8,1.87,1.87,0,0,0,1.25,1.2,1.82,1.82,0,0,0,1.37-1A28.12,28.12,0,0,0,53,148.42Zm31.47-8-.21-.05a3.53,3.53,0,0,0,0-1.3c-.19-.47-.55-1.08-1-1.2a1.61,1.61,0,0,0-1.41.53,8,8,0,0,0-1.22,5.34c.06.53.76,1.35,1.19,1.37A2.08,2.08,0,0,0,83.41,144,24.47,24.47,0,0,0,84.43,140.37Zm50.31-60.26c.21.32.48,1.15.82,1.17a2.33,2.33,0,0,0,1.85-.64,21.64,21.64,0,0,0,2.13-4.11,1.77,1.77,0,0,0-.56-1.6,1.81,1.81,0,0,0-1.7.14A8,8,0,0,0,134.74,80.11Zm-34.32,28a6.44,6.44,0,0,0-1.25-1.56,1.3,1.3,0,0,0-1.2.39,36.61,36.61,0,0,0-2.26,4.68,1.84,1.84,0,0,0,.64,1.69,1.8,1.8,0,0,0,1.72-.48C99,111.32,99.62,109.72,100.42,108.07Zm22.69-9.85-.17,0a5.3,5.3,0,0,0-.16-1.66,1.81,1.81,0,0,0-1-1c-.33-.08-1.09.29-1.14.57a48.16,48.16,0,0,0-.83,5.6c0,.43.63.91,1,1.36.46-.35,1.16-.61,1.34-1.07A33.81,33.81,0,0,0,123.11,98.22ZM16.37,99.46c-2.34,1.79-2.74,4.34-2.68,7a1.28,1.28,0,0,0,.77.9,1.12,1.12,0,0,0,1-.42A22,22,0,0,0,17,103.75,3.86,3.86,0,0,0,16.37,99.46Zm18.08,45.92a7.82,7.82,0,0,0,1.34,2c.17.15,1.36-.43,1.52-.89a24.19,24.19,0,0,0,1.17-4.67,1.62,1.62,0,0,0-1-1.27,1.65,1.65,0,0,0-1.41.74C35.46,142.51,35,143.87,34.45,145.38Zm90.26-1.26c.4.73.72,1.32,1.05,1.91.55-.32,1.36-.51,1.62-1a19.46,19.46,0,0,0,1.63-4.15c.11-.43-.46-1.25-.94-1.53a1.58,1.58,0,0,0-1.49.48C125.86,141.17,125.34,142.62,124.71,144.12Zm.72-88.3c-.07,1.37.34,1.75,1.34,1.36A6.27,6.27,0,0,0,130.41,53a1.66,1.66,0,0,0-.6-1.39,1.48,1.48,0,0,0-1.4,0A7.29,7.29,0,0,0,125.43,55.82Zm-51.21,6c1.38,0,3.91-2.55,3.92-3.92a1.23,1.23,0,0,0-1.7-1.23A5.17,5.17,0,0,0,72.85,60,1.36,1.36,0,0,0,74.22,61.81Zm68.62,43.41c-.36-.59-.59-1.54-1.12-1.75-1-.39-1.54.58-1.85,1.41a13.88,13.88,0,0,0-.91,3.18,2.11,2.11,0,0,0,.8,1.74c.82.46,1.58-.21,1.91-1C142.14,107.77,142.4,106.6,142.84,105.22ZM31,123.3c-.54-.78-.84-1.66-1.34-1.8a1.94,1.94,0,0,0-1.67.9,20.21,20.21,0,0,0-1.21,4.06,1.32,1.32,0,0,0,.65,1.12,1.3,1.3,0,0,0,1.24-.26C29.47,126.06,30.17,124.7,31,123.3ZM71.26,80.81c0-1.26-.81-2-1.59-1.5a6.11,6.11,0,0,0-2.94,4.18,1.12,1.12,0,0,0,1.74,1.23A6.25,6.25,0,0,0,71.26,80.81ZM45.14,76c0-1.36-1-2-2.12-1.14a10.52,10.52,0,0,0-2.49,3.08c-.52.93.58,2,1.61,1.79A5.27,5.27,0,0,0,45.14,76Zm56.68,74.15c-.38-.71-.54-1.41-1-1.71a1.8,1.8,0,0,0-1.53.16c-1.11.69-1.67,3.57-1,4.73.54,1,1.36,1.18,2,.27A22.17,22.17,0,0,0,101.82,150.15Zm-43-96.38c-.23-.17-.64-.69-1.12-.79-1.38-.26-3.86,1.85-3.92,3.26a1.3,1.3,0,0,0,1.26,1.47C56.35,57.86,58.82,55.54,58.83,53.77Zm51,28c.39.73.63,1.65,1,1.69a1.94,1.94,0,0,0,1.61-.82,20.56,20.56,0,0,0,1.35-4,1.07,1.07,0,0,0-2-.76C111.05,79.13,110.48,80.46,109.82,81.8ZM46,114.94a5.89,5.89,0,0,0,1,1.62,1.53,1.53,0,0,0,1.3,0,4.37,4.37,0,0,0,1.82-3.7c-.22-1.3-1.32-1.82-2.23-.89A17,17,0,0,0,46,114.94Zm73-75A5.66,5.66,0,0,0,115,42.29c-.24.38-.37,1.2-.16,1.41a1.65,1.65,0,0,0,1.49.3,21.13,21.13,0,0,0,3.33-2,1.35,1.35,0,0,0,.29-1.26C119.84,40.32,119.28,40.11,119,39.9ZM89.12,75.83c1.75,0,4.32-3.2,3.9-4.46a1.44,1.44,0,0,0-1.22-.69c-1.1.18-3.24,3-3.2,4.08A2.74,2.74,0,0,0,89.12,75.83ZM87.2,43.5c1.64.2,4.75-1.56,5.28-3a1.1,1.1,0,0,0-.1-1,1.65,1.65,0,0,0-1.16-.39C89.63,39.28,87.39,41.79,87.2,43.5ZM42,96.86c0-1.08-.65-1.15-1.43-1A4.7,4.7,0,0,0,37.71,99a1.19,1.19,0,0,0,1.51,1.32A4.58,4.58,0,0,0,42,96.86ZM25.3,77.58a4.41,4.41,0,0,0-4.44,2.07,2.14,2.14,0,0,0-.15,1.9c.46.76,1.29.38,1.89-.06A6,6,0,0,0,25.3,77.58ZM9.2,156.43a9.66,9.66,0,0,0-.46-2,1.47,1.47,0,0,0-1-.79,1.42,1.42,0,0,0-1,.79,5.44,5.44,0,0,0-.38,2c0,1.28.66,2.32,1.44,2.35S9.1,157.78,9.2,156.43Zm.92-27.56a5.67,5.67,0,0,0-.16-1.48,1.43,1.43,0,0,0-.75-.81,1.33,1.33,0,0,0-1,.39A3.79,3.79,0,0,0,8,130.9c.55.73,1.18.76,1.58,0A10.59,10.59,0,0,0,10.12,128.87Z" style="fill:#6e3e2a"/><path d="M180.72,76c-.53-2.41-1.24-4.79-1.56-7.23-1.25-9.44.3-18.36,5.36-26.54a11.35,11.35,0,0,1,.8-1c1.1,1.2,2.14,2.45,3.3,3.58,2.44,2.38,5.62,3.21,8.79,4.05-1.47,1.2-2.46,2.63-1.95,4.63a5.05,5.05,0,0,0,3.82,3.71,20,20,0,0,0,2.81.42C197.24,66.38,190.35,72.79,180.72,76Z" style="fill:#e7ae86"/><path d="M202.09,57.6a20,20,0,0,1-2.81-.42,5.05,5.05,0,0,1-3.82-3.71c-.51-2,.48-3.43,1.95-4.63a24.53,24.53,0,0,1,4.9-1.41,7.19,7.19,0,0,1,4,.9,4.25,4.25,0,0,1,.48,7.3C205.43,56.6,203.66,57,202.09,57.6Z" style="fill:#170f15"/><path d="M5.29,173.69c.94,1.07,2.26,1.23,3.55,1.44,2.7.44,5.39.94,8.1,1.29a20.76,20.76,0,0,0,3.43-.1c-.39,2.15-.74,4.31-1.2,6.44-.16.71-.72.61-1,.07-.47-.88-.83-1.81-1.21-2.73-.48-1.14-.92-2.29-1.5-3.76-.65,2.32-1.19,4.31-1.74,6.29a2.24,2.24,0,0,1-.14.58,9.36,9.36,0,0,1-.63.92,3.53,3.53,0,0,1-.68-.88c-.73-2-1.42-4.06-2.13-6.1-.12-.36-.26-.71-.47-1.27C9.25,178.06,8.91,180,8.5,182A4.27,4.27,0,0,1,7.93,183c-.23-.33-.59-.62-.68-1C6.57,179.27,5.94,176.48,5.29,173.69Z" style="fill:#cb834d"/><path d="M120.54,175.06c3-.13,6.11-.29,9.16-.37,1.25,0,2.51.14,3.76.22-.72,1.85-1.41,3.71-2.19,5.54a15.35,15.35,0,0,1-1.23,2c-.36-.68-.77-1.34-1.08-2.05-.78-1.78-1.52-3.57-2.39-5.63-.73,2.65-1.36,5-2,7.38a4.47,4.47,0,0,1-.74,1.09,5.15,5.15,0,0,1-.71-1C122.21,179.87,121.38,177.47,120.54,175.06Z" style="fill:#cb824c"/><path d="M90.61,176.65l12.14-.25c-.4,1-.8,1.95-1.22,2.92-.56,1.31-1.13,2.63-1.75,3.92-.14.28-.47.48-.71.71a4.26,4.26,0,0,1-.62-.81c-.84-2-1.65-4.11-2.54-6.35-.74,2-1.37,3.82-2.08,5.59-.17.42-.64.72-1,1.07a6,6,0,0,1-.68-1.17C91.63,180.41,91.13,178.53,90.61,176.65Z" style="fill:#ca824d"/><path d="M32.37,174.63l11.38,1.58c-.8,1.82-1.58,3.66-2.43,5.46a5.3,5.3,0,0,1-1,1.11,6.28,6.28,0,0,1-.85-1.18,61.52,61.52,0,0,0-2.57-6c-.56,1.73-1.1,3.48-1.72,5.19a7,7,0,0,1-.91,1.42,7.78,7.78,0,0,1-.7-1.53C33.15,178.69,32.77,176.66,32.37,174.63Z" style="fill:#cb834e"/><path d="M133.88,174.9c2.12-.31,4.23-.56,6.3.27-.65,2.1-1.29,4.19-1.94,6.28a4.31,4.31,0,0,1-.41,1,3.74,3.74,0,0,1-.62.64c-.2-.22-.5-.4-.59-.66C135.69,179.92,134.79,177.41,133.88,174.9Z" style="fill:#cb824c"/><path d="M103.34,176.41l5.65-.29c-.78,2.47-1.57,4.95-2.35,7.43H106Q104.57,180,103.34,176.41Z" style="fill:#cc834e"/><path d="M44.52,176.42l5.46.21c-.87,1.87-1.71,3.75-2.61,5.6-.13.27-.5.42-.76.63a3.19,3.19,0,0,1-.54-.83C45.53,180.16,45,178.29,44.52,176.42Z" style="fill:#cb834e"/><path d="M32.13,174.22l.18.32Z" style="fill:#cb834e"/><path d="M138.86,58.83a36.12,36.12,0,0,1,1.63-5.2c1.85-3.89,8-4.72,11.4-1.67a7.44,7.44,0,0,1,1.84,8.84c-1.74,3.87-4.89,6-8.35,5.62S139.11,62.63,138.86,58.83Z" style="fill:#fccfe4"/><path d="M161,49.84c-3.32.11-6.15-2.83-6.38-6.6a1.48,1.48,0,0,1,1.15-1.73c.84-.16,1.32.37,1.65,1.08.25.54.51,1.08.8,1.6a3.09,3.09,0,0,0,2.69,1.87,2.94,2.94,0,0,0,2.77-1.75c.45-.78.63-1.71,1-2.53a9,9,0,0,1,1.39-2.29c.67-.7,1.45-.45,2,.4.83,1.32.29,2.65-.08,3.92-.81,2.81-2.3,5.07-5.35,5.88a3.8,3.8,0,0,1-.58.15C161.69,49.86,161.33,49.84,161,49.84Z" style="fill:#150e14"/><path d="M138.7,11.42c-.29,2.72-.93,3.56-3.33,4a3.57,3.57,0,0,1-3.5-1.63,7.66,7.66,0,0,1-1.39-6.24,3.78,3.78,0,0,1,3.21-3.12,3.63,3.63,0,0,1,3.56,2.15A44.75,44.75,0,0,1,138.7,11.42Z" style="fill:#e5ab84"/><path d="M120.34,32.14c-.4,0-.88.09-1.18-.09-.57-.36-1.34-.81-1.47-1.35a2,2,0,0,1,.7-1.82,7,7,0,0,1,5.76-.58,1.78,1.78,0,0,1,.83,1.51,2.16,2.16,0,0,1-1,1.53,25.18,25.18,0,0,1-3.56.94Z" style="fill:#c0b298"/><path d="M84.91,96.21c-.85,2.3-1.78,4.37-3.68,5.79a1.64,1.64,0,0,1-1.55,0,1.86,1.86,0,0,1-.61-1.54,11,11,0,0,1,3.41-5.38A1.68,1.68,0,0,1,84,95C84.41,95.14,84.62,95.77,84.91,96.21Z" style="fill:#c0b399"/><path d="M112.51,124.49a47.52,47.52,0,0,1-1.74,4.81c-.24.51-1.38,1.11-1.77.93a2.24,2.24,0,0,1-1.11-1.83,21.21,21.21,0,0,1,1.45-4.9,2.43,2.43,0,0,1,1.83-.92C111.9,122.54,112.32,123.42,112.51,124.49Z" style="fill:#c0b399"/><path d="M77.1,120.84c-.67,1.65-1.2,3.23-2,4.69a1.9,1.9,0,0,1-1.63.79,2,2,0,0,1-1.17-1.44,7.2,7.2,0,0,1,1.94-5.46,1.7,1.7,0,0,1,1.6-.2C76.37,119.49,76.64,120.19,77.1,120.84Z" style="fill:#c0b299"/><path d="M133.2,122.06c-.46,1.73-.78,3.21-1.27,4.63a1.74,1.74,0,0,1-2,1.38,1.61,1.61,0,0,1-1-2,36.44,36.44,0,0,1,1.25-4.46c.28-.81.95-1.63,1.88-1.22C132.58,120.59,132.84,121.5,133.2,122.06Z" style="fill:#c0b299"/><path d="M107.5,56.1a2.2,2.2,0,0,1-.3.81,44,44,0,0,1-3.43,3.91,1.94,1.94,0,0,1-1.82,0,1.73,1.73,0,0,1-.15-1.68,29.84,29.84,0,0,1,3.71-4.29C106.37,54.1,107.51,54.79,107.5,56.1Z" style="fill:#c0b298"/><path d="M53,148.42a28.12,28.12,0,0,1-.82,3.64,1.82,1.82,0,0,1-1.37,1,1.87,1.87,0,0,1-1.25-1.2,8.82,8.82,0,0,1,.7-5.8,1.13,1.13,0,0,1,2.09,0A11.33,11.33,0,0,1,53,148.42Z" style="fill:#c0b299"/><path d="M84.43,140.37a24.47,24.47,0,0,1-1,3.64,2.08,2.08,0,0,1-1.62,1.05c-.43,0-1.13-.84-1.19-1.37a8,8,0,0,1,1.22-5.34,1.61,1.61,0,0,1,1.41-.53c.41.12.77.73,1,1.2a3.53,3.53,0,0,1,0,1.3Z" style="fill:#c0b399"/><path d="M134.74,80.11a8,8,0,0,1,2.54-5,1.81,1.81,0,0,1,1.7-.14,1.77,1.77,0,0,1,.56,1.6,21.64,21.64,0,0,1-2.13,4.11,2.33,2.33,0,0,1-1.85.64C135.22,81.26,135,80.43,134.74,80.11Z" style="fill:#c0b299"/><path d="M100.42,108.07c-.8,1.65-1.46,3.25-2.35,4.72a1.8,1.8,0,0,1-1.72.48,1.84,1.84,0,0,1-.64-1.69A36.61,36.61,0,0,1,98,106.9a1.3,1.3,0,0,1,1.2-.39A6.44,6.44,0,0,1,100.42,108.07Z" style="fill:#c0b299"/><path d="M123.11,98.22a33.81,33.81,0,0,1-1,3.77c-.18.46-.88.72-1.34,1.07-.34-.45-1-.93-1-1.36a48.16,48.16,0,0,1,.83-5.6c0-.28.81-.65,1.14-.57a1.81,1.81,0,0,1,1,1,5.3,5.3,0,0,1,.16,1.66Z" style="fill:#c0b299"/><path d="M16.37,99.46a3.86,3.86,0,0,1,.61,4.29A22,22,0,0,1,15.45,107a1.12,1.12,0,0,1-1,.42,1.28,1.28,0,0,1-.77-.9C13.63,103.8,14,101.25,16.37,99.46Z" style="fill:#c0b399"/><path d="M34.45,145.38c.58-1.51,1-2.87,1.64-4.12a1.65,1.65,0,0,1,1.41-.74,1.62,1.62,0,0,1,1,1.27,24.19,24.19,0,0,1-1.17,4.67c-.16.46-1.35,1-1.52.89A7.82,7.82,0,0,1,34.45,145.38Z" style="fill:#c0b299"/><path d="M124.71,144.12c.63-1.5,1.15-3,1.87-4.29a1.58,1.58,0,0,1,1.49-.48c.48.28,1.05,1.1.94,1.53a19.46,19.46,0,0,1-1.63,4.15c-.26.49-1.07.68-1.62,1C125.43,145.44,125.11,144.85,124.71,144.12Z" style="fill:#c0b299"/><path d="M125.43,55.82a7.29,7.29,0,0,1,3-4.23,1.48,1.48,0,0,1,1.4,0,1.66,1.66,0,0,1,.6,1.39,6.27,6.27,0,0,1-3.64,4.15C125.77,57.57,125.36,57.19,125.43,55.82Z" style="fill:#c0b298"/><path d="M74.22,61.81A1.36,1.36,0,0,1,72.85,60a5.17,5.17,0,0,1,3.59-3.38,1.23,1.23,0,0,1,1.7,1.23C78.13,59.26,75.6,61.78,74.22,61.81Z" style="fill:#c0b298"/><path d="M142.84,105.22c-.44,1.38-.7,2.55-1.17,3.62-.33.75-1.09,1.42-1.91,1a2.11,2.11,0,0,1-.8-1.74,13.88,13.88,0,0,1,.91-3.18c.31-.83.82-1.8,1.85-1.41C142.25,103.68,142.48,104.63,142.84,105.22Z" style="fill:#c1b399"/><path d="M31,123.3c-.8,1.4-1.5,2.76-2.33,4a1.3,1.3,0,0,1-1.24.26,1.32,1.32,0,0,1-.65-1.12A20.21,20.21,0,0,1,28,122.4a1.94,1.94,0,0,1,1.67-.9C30.13,121.64,30.43,122.52,31,123.3Z" style="fill:#c1b39a"/><path d="M71.26,80.81a6.25,6.25,0,0,1-2.79,3.91,1.12,1.12,0,0,1-1.74-1.23,6.11,6.11,0,0,1,2.94-4.18C70.45,78.81,71.29,79.55,71.26,80.81Z" style="fill:#c0b299"/><path d="M45.14,76a5.27,5.27,0,0,1-3,3.73c-1,.25-2.13-.86-1.61-1.79A10.52,10.52,0,0,1,43,74.86C44.14,74,45.18,74.64,45.14,76Z" style="fill:#c0b299"/><path d="M101.82,150.15a22.17,22.17,0,0,1-1.56,3.45c-.61.91-1.43.71-2-.27-.65-1.16-.09-4,1-4.73a1.8,1.8,0,0,1,1.53-.16C101.28,148.74,101.44,149.44,101.82,150.15Z" style="fill:#c0b298"/><path d="M58.83,53.77c0,1.77-2.48,4.09-3.78,3.94a1.3,1.3,0,0,1-1.26-1.47c.06-1.41,2.54-3.52,3.92-3.26C58.19,53.08,58.6,53.6,58.83,53.77Z" style="fill:#c0b299"/><path d="M109.82,81.8c.66-1.34,1.23-2.67,2-3.9a1.07,1.07,0,0,1,2,.76,20.56,20.56,0,0,1-1.35,4,1.94,1.94,0,0,1-1.61.82C110.45,83.45,110.21,82.53,109.82,81.8Z" style="fill:#c0b399"/><path d="M46,114.94a17,17,0,0,1,1.91-3c.91-.93,2-.41,2.23.89a4.37,4.37,0,0,1-1.82,3.7,1.53,1.53,0,0,1-1.3,0A5.89,5.89,0,0,1,46,114.94Z" style="fill:#bfb198"/><path d="M119,39.9c.29.21.85.42,1,.79A1.35,1.35,0,0,1,119.7,42a21.13,21.13,0,0,1-3.33,2,1.65,1.65,0,0,1-1.49-.3c-.21-.21-.08-1,.16-1.41A5.66,5.66,0,0,1,119,39.9Z" style="fill:#c0b298"/><path d="M89.12,75.83a2.74,2.74,0,0,1-.52-1.07c0-1.12,2.1-3.9,3.2-4.08a1.44,1.44,0,0,1,1.22.69C93.44,72.63,90.87,75.78,89.12,75.83Z" style="fill:#bfb197"/><path d="M87.2,43.5c.19-1.71,2.43-4.22,4-4.41a1.65,1.65,0,0,1,1.16.39,1.1,1.1,0,0,1,.1,1C92,41.94,88.84,43.7,87.2,43.5Z" style="fill:#c0b299"/><path d="M42,96.86a4.58,4.58,0,0,1-2.77,3.47A1.19,1.19,0,0,1,37.71,99a4.7,4.7,0,0,1,2.85-3.15C41.34,95.71,42,95.78,42,96.86Z" style="fill:#c0b299"/><path d="M25.3,77.58a6,6,0,0,1-2.7,3.91c-.6.44-1.43.82-1.89.06a2.14,2.14,0,0,1,.15-1.9A4.41,4.41,0,0,1,25.3,77.58Z" style="fill:#bfb097"/><path d="M9.2,156.43c-.1,1.35-.71,2.39-1.48,2.36s-1.46-1.07-1.44-2.35a5.44,5.44,0,0,1,.38-2,1.42,1.42,0,0,1,1-.79,1.47,1.47,0,0,1,1,.79A9.66,9.66,0,0,1,9.2,156.43Z" style="fill:#beb097"/><path d="M10.12,128.87a10.59,10.59,0,0,1-.59,2c-.4.8-1,.77-1.58,0A3.79,3.79,0,0,1,8.2,127a1.33,1.33,0,0,1,1-.39,1.43,1.43,0,0,1,.75.81A5.67,5.67,0,0,1,10.12,128.87Z" style="fill:#c0b299"/></g></g></svg>