<svg xmlns="http://www.w3.org/2000/svg" viewBox="0 0 160.02 154.39"><g id="Layer_2" data-name="Layer 2"><g id="OBJECTS"><path d="M51.62,66.57c-4.79,5.72-7.16,12.48-8.42,19.71C42,93,43.31,99.56,45,106.05c.35,1.35.74,2.69,1.1,4a31.46,31.46,0,0,0,4.33,9.68C55.3,127,60.84,133.66,67.81,139c1.32,1,2.73,1.92,4.22,3,.54-1.51,1-2.82,1.46-4.11,4.38-11.93,9-23.8,13.09-35.81a260.39,260.39,0,0,0,8.65-30.42c.19-.9.51-1.77.77-2.65.64.17,1.29.3,1.9.52,2,.72,4,1.47,6,2.21a7.91,7.91,0,0,0,1.41,1.87A10.42,10.42,0,0,0,113,75.62c2.39-.34,3.47-1.49,3.77-3.77l3.72-1.21Q120,86,119.61,101.31c0,1.6,0,3.2,0,4.8q.08,14.56.16,29.14a.86.86,0,0,1,0,.23l-6.65.19c0-3.43.1-6.85.14-10.28.06-8.43.14-16.86-1-25.32a2.44,2.44,0,0,0-1,1.29,9,9,0,0,0-.21,2.14c0,5.68-.07,11.35,0,17,0,2.83.34,5.65.52,8.48l.13,6.69-7.17.47L104,106.7l-.56-.14q-5.13,7-10.29,14a13.59,13.59,0,0,1,1.42.56c3.63,2,5.11,5.38,5.47,9.16.49,5.09-2.15,9.1-5.34,12.77-.79.9-1.7,1.68-2.56,2.52-.28.27-.58.54.08.7-.25,2.6-.51,5.2-.76,7.8a99,99,0,0,1-21.28-.78c-3.72-.49-7.45-1-11.16-1.55a34,34,0,0,1-4.49-1.24,87.6,87.6,0,0,1-26.18-13.31c-11.74-8.58-21-19.36-25.72-33.52C-.67,93.84-.61,83.87,1.41,73.77A59.18,59.18,0,0,1,14.21,46.5c.33-.39.72-.74,1.08-1.11,1.46-.13,2.94-.21,4.39-.4,1.15-.16,1.72.25,1.87,1.39.26,1.85.49,3.72.86,5.55.52,2.53,1.69,3.28,4.11,2.47,2.84-.95,5.61-2.1,8.41-3.15.42-.15.87-.23,1.42-.37,0,.62.07,1,.07,1.49,0,2.51,0,5,0,7.54a2.18,2.18,0,0,0,3,2.18c.45-.14.88-.37,1.33-.54L45,59.89v3.36c0,3.07,1.18,4,4.19,3.45A19.36,19.36,0,0,1,51.62,66.57Zm-4.77,54.75a11.34,11.34,0,0,0-3-5.62c-.34-.4-1.16-.38-1.76-.56-.14.61-.59,1.39-.36,1.8a38.7,38.7,0,0,0,2.87,4.22,1.69,1.69,0,0,0,1.14.58C46.14,121.77,46.52,121.47,46.85,121.32ZM17.39,53.25c-.48-.63-.75-1.3-1.17-1.43a1.55,1.55,0,0,0-1.36.61,17.59,17.59,0,0,0-1.57,3.45,1.51,1.51,0,0,0,.59,1.37,1.48,1.48,0,0,0,1.44-.32C16.08,55.81,16.67,54.56,17.39,53.25ZM11.12,87.33c1.11-2.43.6-4.66.09-6.86-.1-.4-.64-.7-1-1-.29.39-.85.79-.83,1.16a49.81,49.81,0,0,0,.66,5.3C10.16,86.35,10.69,86.75,11.12,87.33ZM30,102.19c.73-2.51,0-4.57-1.11-6.55-.13-.24-.72-.49-.88-.39-.32.2-.74.7-.67,1,.42,1.67.92,3.34,1.5,5C29,101.56,29.53,101.79,30,102.19Zm-9.15,25.42.26-.27a10.91,10.91,0,0,0-3.83-6,1,1,0,0,0-.95,0,1.15,1.15,0,0,0-.15,1,31.58,31.58,0,0,0,2.55,3.6A11.78,11.78,0,0,0,20.86,127.61ZM19.17,63.9c.32.5.52,1.2.94,1.36s1.13-.3,1.32-.69a14.13,14.13,0,0,0,1.21-3.33A1.48,1.48,0,0,0,21.88,60a1.51,1.51,0,0,0-1.35.58A31.07,31.07,0,0,0,19.17,63.9ZM38.69,75.75c.49-.59,1-.92,1.09-1.36a24.79,24.79,0,0,0,.89-3.81c.06-.4-.35-.88-.55-1.31-.45.23-1.21.37-1.31.71A26.67,26.67,0,0,0,38,74.23C37.9,74.63,38.36,75.1,38.69,75.75ZM12.83,99.17c.78-2.08.19-4-.4-5.91a1.56,1.56,0,0,0-1-.77c-.22,0-.71.36-.82.66C10,94.65,11.32,98.17,12.83,99.17Zm36.06,35.34c-.15-1.61-2.53-4.42-4-4.71a1.32,1.32,0,0,0-1,.32,1,1,0,0,0,0,1c1.19,1.15,2.43,2.26,3.72,3.31C47.91,134.6,48.46,134.48,48.89,134.51Zm-26.58-30c.76-1.34.57-4.41-.33-5.45-.22-.26-.78-.55-1-.44-.35.19-.82.72-.77,1a28.81,28.81,0,0,0,1,4C21.37,104,21.93,104.23,22.31,104.53ZM20.19,90.27a13.27,13.27,0,0,0,0-6,1.58,1.58,0,0,0-.71-.83c-.16-.07-.64.28-.77.55C18,85.4,18.92,89.22,20.19,90.27Zm45.58,58.36a6.28,6.28,0,0,0-4.8-2.76c-.36-.05-.79.39-1.19.6.23.42.35,1,.7,1.21a16.32,16.32,0,0,0,3.24,1.18A6.89,6.89,0,0,0,65.77,148.63ZM8,93.62c.7-1.75.24-3.38-.28-5a1.73,1.73,0,0,0-1.08-.91c-.21-.07-.77.41-.89.74C5.24,90,6.52,92.87,8,93.62Zm14.16,25.59a4.93,4.93,0,0,0-1.32-4.91,1.63,1.63,0,0,0-1.37-.18,1.31,1.31,0,0,0-.31,1.22C19.83,116.88,20.51,118.44,22.18,119.21ZM36.31,86.55a5.15,5.15,0,0,0,.85-4.8,1.28,1.28,0,0,0-.89-.76,1.3,1.3,0,0,0-1,.61C34.51,82.88,35.07,85.48,36.31,86.55Zm-20-13.44-.14,0A7.71,7.71,0,0,0,16,71.53c-.09-.29-.41-.68-.66-.71a1,1,0,0,0-.83.52A6.44,6.44,0,0,0,14.17,76c.09.26.4.6.63.61a.88.88,0,0,0,.69-.52C15.8,75.11,16,74.1,16.27,73.11Zm22.2,24.31a6.86,6.86,0,0,0-1.06-5.07,1,1,0,0,0-.86-.46,1.15,1.15,0,0,0-.68.7C35.36,94.09,36.9,97,38.47,97.42ZM39.21,111a6.79,6.79,0,0,0-1.11-5.34,1,1,0,0,0-.88-.36,1,1,0,0,0-.51.81,31.49,31.49,0,0,0,1.14,4C38,110.46,38.62,110.64,39.21,111Zm-9.34,2.31c.71-1.23.15-4.13-.94-4.89a1,1,0,0,0-1.61.8A5,5,0,0,0,29.87,113.34ZM63.71,143.5a7.76,7.76,0,0,0-3.82-3.33,1.63,1.63,0,0,0-1.34.29c-.16.11-.09.94.14,1.13C60.08,142.79,61.55,143.9,63.71,143.5ZM38.17,123l.39-.26c-.85-1.45-1.67-2.92-2.58-4.33a1.16,1.16,0,0,0-1.1-.31,1.27,1.27,0,0,0-.51,1.06C34.47,120.44,36.86,122.79,38.17,123Zm.52,15.29.17-.36a12.45,12.45,0,0,0-4.52-4.13c-.3-.17-.78,0-1.18,0,.12.38.13.88.39,1.13a20.7,20.7,0,0,0,2.65,2.21A18.36,18.36,0,0,0,38.69,138.28ZM12.06,113a6.23,6.23,0,0,0-.75-4.91c-.21-.35-.8-.47-1.22-.7-.19.44-.58.9-.53,1.3A5.84,5.84,0,0,0,12.06,113Zm46.25,22.57a10,10,0,0,0-3.9-4.08.92.92,0,0,0-.87,0,.94.94,0,0,0-.19.83C53.74,133.7,56.74,135.68,58.31,135.58ZM30.31,69A5.1,5.1,0,0,0,32,64.8a.79.79,0,0,0-1.31-.72C29.48,64.89,29.21,67.92,30.31,69Zm.24,57.72.39-.28c-1-1.5-2-3-3-4.47-.16-.22-.67-.21-1-.31-.07.36-.31.81-.18,1.07C27.58,124.49,28.58,126.12,30.55,126.76Zm-15.31-18a4.94,4.94,0,0,0-.31-4.33,1.18,1.18,0,0,0-.92-.57,1.23,1.23,0,0,0-.74.78A4.25,4.25,0,0,0,15.24,108.72ZM5.56,75.22a5.29,5.29,0,0,0,1.57-3.6,1.57,1.57,0,0,0-.56-1.06,1,1,0,0,0-.86.08C4.56,71.37,4.46,74.25,5.56,75.22ZM26,80.49a3.91,3.91,0,0,0,1.11-3.91c-.05-.31-.58-.8-.86-.77a1.33,1.33,0,0,0-1,.76A4.2,4.2,0,0,0,26,80.49Zm23.67,62.27a6.6,6.6,0,0,0-3.49-3.27c-.31-.15-.79,0-1.19.06.11.42.09,1,.35,1.22A6.47,6.47,0,0,0,49.69,142.76Zm23.09,5A3.46,3.46,0,0,0,70,145.07a1.12,1.12,0,0,0-.9.37,1.34,1.34,0,0,0,.05,1.09A3.31,3.31,0,0,0,72.78,147.74ZM28.25,90a3.93,3.93,0,0,0,.84-3.89,1.16,1.16,0,0,0-.79-.58,1.18,1.18,0,0,0-.8.57A3.85,3.85,0,0,0,28.25,90ZM9.66,68.25a4.5,4.5,0,0,0,2.05-3.72c-.05-.28-.27-.69-.47-.72a1,1,0,0,0-.91.3A4.52,4.52,0,0,0,9.66,68.25Zm11.25,7,.52,0a21,21,0,0,0,.79-3.07c.06-.45-.35-1.32-.67-1.38-.84-.16-1,.64-1,1.28C20.58,73.11,20.78,74.16,20.91,75.2Z" style="fill:#d5510d"/><path d="M73,32c.65-7.16,1.36-14.31,1.93-21.48.17-2.14-.07-4.31-.06-6.47a7.36,7.36,0,0,1,.33-2.48A2.11,2.11,0,0,1,76.52.43a1.81,1.81,0,0,1,1.41.82q5.47,8.67,10.85,17.4c.37.59.65.76,1.32.42,5.3-2.66,11-3.7,16.86-4.32a74.37,74.37,0,0,1,23.47,1.57,1.47,1.47,0,0,0,1.76-.72q4.49-6.22,9.13-12.33A15.26,15.26,0,0,1,144.17.56c1.23-.95,2.09-.68,2.79.71a5.38,5.38,0,0,1,.46,1.35q2.47,11.55,4.94,23.1c.28,1.29.62,2.56.93,3.84-.66.07-1.31.18-2,.21-1.74.08-3.51,0-5.23.21-5.09.66-9.39,3.07-13.47,6.09-5.66,4.19-10.43,9.1-13.21,15.63-2.23,5.25-4.18,10.62-6.25,15.93l-5-.45c-1-4.21-2-8.46-3.18-12.64A30.18,30.18,0,0,0,91.58,36.8C86,33.28,79.6,32.11,73,32Zm72.82-11.17c-.45-2.66-.87-5.34-1.38-8a2.22,2.22,0,0,0-1.92-2c-1.17-.14-1.74.65-2.19,1.53q-1.87,3.69-3.72,7.39A2,2,0,0,0,138,22.85a32.49,32.49,0,0,0,4.56,1C144.74,24.13,145.69,23.17,145.85,20.87Zm-65,3.25,2.84-.88c2.16-.66,2.81-2.11,1.6-4-1.45-2.29-3.07-4.48-4.66-6.68a3.9,3.9,0,0,0-1.35-1.14,1.65,1.65,0,0,0-2.45,1.72q.59,4.56,1.34,9.11C78.46,23.69,79,24.09,80.89,24.12Zm23.25-1.22a12.15,12.15,0,0,0-.86-2.3,1.5,1.5,0,0,0-1.27-.55,1.44,1.44,0,0,0-.73,1.14,4.27,4.27,0,0,0,.55,2,1.8,1.8,0,0,0,1.33.87C103.52,24.06,103.82,23.32,104.14,22.9ZM115,40.38a4.51,4.51,0,0,0,1.72-3.58c.08-.84-.52-1.22-1.19-.86C114.25,36.6,113.9,39.25,115,40.38Zm3.27,2.38c1.16-.5,2.11-2.58,1.63-3.66-.29-.66-.77-.76-1.33-.31A3.24,3.24,0,0,0,118.23,42.76Zm.59-22.14c-.26-.39-.4-.86-.67-1a1.09,1.09,0,0,0-1,.3,10,10,0,0,0-.81,2.4c0,.27.3.74.59.89s.69-.21.85-.47A23.91,23.91,0,0,0,118.82,20.62ZM115.9,31.44a5,5,0,0,0,1.58-3.51,1.09,1.09,0,0,0-.55-.89,1.06,1.06,0,0,0-.92.48A4.23,4.23,0,0,0,115.9,31.44Zm-5.41,8.25a3.49,3.49,0,0,0,.67-3.62.76.76,0,0,0-1.41,0A3.55,3.55,0,0,0,110.49,39.69Zm-7.34-10a11.35,11.35,0,0,0-.62-2,1.18,1.18,0,0,0-1-.46A1,1,0,0,0,101,28a4.33,4.33,0,0,0,.29,1.86c.17.4.7.64,1.07,1ZM111,47.82a3.74,3.74,0,0,0,.15-3.49c-.45-.59-1-.55-1.34.06A2.81,2.81,0,0,0,111,47.82Zm-5-11.73a4.4,4.4,0,0,0-.24-3.83,1,1,0,0,0-.83-.47.93.93,0,0,0-.55.74A4.45,4.45,0,0,0,106,36.09Zm15.89-3.45c-.46-.44-.89-1.19-1.39-1.24-.85-.09-1.13.75-1.15,1.5s.26,1.41,1.1,1.44S121.58,33.66,121.87,32.64Zm-14.22-5.87a2.86,2.86,0,0,0,.6-3.4c-.14-.2-.47-.43-.66-.39a1.14,1.14,0,0,0-.68.56A3,3,0,0,0,107.65,26.77ZM111,56.61a2.79,2.79,0,0,0,.49-3.06.82.82,0,0,0-1.56,0A2.8,2.8,0,0,0,111,56.61Zm2.19-6.27h.46a3.21,3.21,0,0,0,.89-2.93c-.06-.35-.44-.66-.68-1-.28.28-.78.56-.79.86C113,48.29,113.11,49.32,113.16,50.34ZM111.41,30.4h.66a26,26,0,0,0,.6-2.86c0-.34-.4-.73-.62-1.09-.27.29-.77.57-.78.87A28.79,28.79,0,0,0,111.41,30.4Zm-1-8.45.76,0a9.86,9.86,0,0,0,.63-2.12c0-.33-.53-.71-.82-1.07-.32.29-.89.58-.9.89A11.3,11.3,0,0,0,110.37,22Zm10.75,3.25c.17.16.51.77.87.77,1,0,1.14-.87,1.11-1.62a1.53,1.53,0,0,0-.65-1.17C121.9,22.94,121.16,23.94,121.12,25.2ZM106.54,43.72c-.22-1.29-.35-2.26-.56-3.21,0-.21-.36-.36-.55-.54-.18.22-.54.45-.53.67A3.2,3.2,0,0,0,106.54,43.72Z" style="fill:#d5520e"/><path d="M51.62,66.57a19.36,19.36,0,0,0-2.41.13c-3,.56-4.18-.38-4.19-3.45V59.89l-4.24,1.66c-.45.17-.88.4-1.33.54a2.18,2.18,0,0,1-3-2.18c0-2.51,0-5,0-7.54,0-.44,0-.87-.07-1.49-.55.14-1,.22-1.42.37-2.8,1-5.57,2.2-8.41,3.15-2.42.81-3.59.06-4.11-2.47-.37-1.83-.6-3.7-.86-5.55-.15-1.14-.72-1.55-1.87-1.39-1.45.19-2.93.27-4.39.4.57-.71,1.12-1.44,1.72-2.12,4.35-4.93,9-9.48,15-12.55a141.93,141.93,0,0,0,12.53-7,108.27,108.27,0,0,0,11-8.38,20.18,20.18,0,0,0,5.75-9A6.57,6.57,0,0,1,62,4.8c.25-.36.71-.82,1-.8s.78.54.92.93c.5,1.35.87,2.74,1.31,4.11,1.28,4,2.72,8,3.83,12.1,2,7.43,1.35,14.82-.54,22.22a32.32,32.32,0,0,1-8.38,15C57.37,61.14,54.46,63.83,51.62,66.57Z" style="fill:#c5b89e"/><path d="M113.16,67.63c2.07-5.31,4-10.68,6.25-15.93,2.78-6.53,7.55-11.44,13.21-15.63,4.08-3,8.38-5.43,13.47-6.09,1.72-.23,3.49-.13,5.23-.21.66,0,1.31-.14,2-.21.89,3.09,1.69,6.21,2.7,9.26,1.12,3.41,2.44,6.76,3.63,10.15a5.62,5.62,0,0,1,.4,2.09,2.35,2.35,0,0,1-1.52,2.3q-9.48,4-18.89,8.16c-3.73,1.65-7.39,3.45-11.06,5.2-2.71,1.29-5.4,2.61-8.1,3.92l-3.72,1.21C116.59,69.56,115,68.5,113.16,67.63Zm19.19-11.74a10.71,10.71,0,0,0,7.79-4.47,1.9,1.9,0,0,0,0-2.64c-.82-.81-1.73-.35-2.51.16s-1.74,1.28-2.6,1.91a5.44,5.44,0,0,1-5.67.65,30.59,30.59,0,0,1-3.09-1.94c-.44-.25-1.15-.63-1.41-.45a1.76,1.76,0,0,0-.71,1.45,5.74,5.74,0,0,0,1.23,2.51C127.14,55,129.47,55.73,132.35,55.89Z" style="fill:#c4b89e"/><path d="M73,32c6.57.07,12.94,1.24,18.55,4.76A30.18,30.18,0,0,1,105,54.54c1.19,4.18,2.13,8.43,3.18,12.64-.42.11-.85.2-1.27.33a3.74,3.74,0,0,0-3,4.19c-2-.74-4-1.49-6-2.21-.61-.22-1.26-.35-1.9-.52a15.92,15.92,0,0,0-2.28-1.68Q81.39,61.11,69,55a3.27,3.27,0,0,0-.55-.2c-2-.56-2.35-1.31-1.65-3.22,1.58-4.3,3.18-8.6,4.62-13C72.15,36.5,72.51,34.25,73,32Zm16,25c3,.06,6.5-2.46,7.23-5.15.15-.54.1-1.48-.24-1.73a2.07,2.07,0,0,0-1.85-.09A12.37,12.37,0,0,0,91.73,52a3.72,3.72,0,0,1-4.3.88C85.88,52.15,84.52,51,83,50.11a8.56,8.56,0,0,0-1.77-.59c-.1.66-.25,1.32-.3,2a1.6,1.6,0,0,0,.34.76A9.33,9.33,0,0,0,89,57.06Z" style="fill:#c4b79e"/><path d="M92.19,146.32c-.66-.16-.36-.43-.08-.7.86-.84,1.77-1.62,2.56-2.52,3.19-3.67,5.83-7.68,5.34-12.77-.36-3.78-1.84-7.2-5.47-9.16a13.59,13.59,0,0,0-1.42-.56q5.17-7,10.29-14l.56.14.42,29.47c0,2.17.07,4.33.1,6.5-.17,0-.41-.11-.49,0-1.18,1.17-2.35,2.35-3.49,3.56-.16.17-.15.49-.22.75Z" style="fill:#c4b59b"/><path d="M104.49,142.67c0-2.17-.06-4.33-.1-6.5l7.17-.47a43.55,43.55,0,0,1-1.18,14.7,8,8,0,0,1-1.4,2.73c-1.15,1.46-2.87,1.13-3.54-.61a6.56,6.56,0,0,1-.39-1.86C104.84,148,104.67,145.33,104.49,142.67Z" style="fill:#1f1415"/><path d="M113,135.67l6.65-.19c-.14,5.15.14,10.33-1.17,15.37a7.43,7.43,0,0,1-1.22,2.68,1.6,1.6,0,0,1-2.89-.4,8.71,8.71,0,0,1-.78-3C113.38,145.32,113.23,140.49,113,135.67Z" style="fill:#201416"/><path d="M92.19,146.32l8.1.62c.56.19,1.15.35,1.69.59a2.68,2.68,0,0,1,1.87,2.28,2.64,2.64,0,0,1-1.64,2.7A16.61,16.61,0,0,1,98,153.75c-2.17.28-4.37.26-6.56.37C91.68,151.52,91.94,148.92,92.19,146.32Z" style="fill:#211617"/><path d="M111.43,129c-.18-2.83-.48-5.65-.52-8.48-.08-5.68,0-11.35,0-17a9,9,0,0,1,.21-2.14,2.44,2.44,0,0,1,1-1.29c1.16,8.46,1.08,16.89,1,25.32-.35.66-.73,1.32-1.06,2S111.66,128.46,111.43,129Z" style="fill:#c8b194"/><path d="M103.89,71.7a3.74,3.74,0,0,1,3-4.19c.42-.13.85-.22,1.27-.33l5,.45c1.83.87,3.43,1.93,3.57,4.22-.3,2.28-1.38,3.43-3.77,3.77a10.42,10.42,0,0,1-7.66-2.05A7.91,7.91,0,0,1,103.89,71.7Z" style="fill:#241618"/><path d="M46.85,121.32c-.33.15-.71.45-1.06.42a1.69,1.69,0,0,1-1.14-.58,38.7,38.7,0,0,1-2.87-4.22c-.23-.41.22-1.19.36-1.8.6.18,1.42.16,1.76.56A11.34,11.34,0,0,1,46.85,121.32Z" style="fill:#dbdcdb"/><path d="M17.39,53.25c-.72,1.31-1.31,2.56-2.07,3.68a1.48,1.48,0,0,1-1.44.32,1.51,1.51,0,0,1-.59-1.37,17.59,17.59,0,0,1,1.57-3.45,1.55,1.55,0,0,1,1.36-.61C16.64,52,16.91,52.62,17.39,53.25Z" style="fill:#dbdbda"/><path d="M11.12,87.33c-.43-.58-1-1-1-1.45a49.81,49.81,0,0,1-.66-5.3c0-.37.54-.77.83-1.16.33.35.87.65,1,1C11.72,82.67,12.23,84.9,11.12,87.33Z" style="fill:#dbdbda"/><path d="M30,102.19c-.48-.4-1-.63-1.16-1-.58-1.63-1.08-3.3-1.5-5-.07-.27.35-.77.67-1,.16-.1.75.15.88.39C30,97.62,30.74,99.68,30,102.19Z" style="fill:#dbdbd8"/><path d="M20.86,127.61a11.78,11.78,0,0,1-2.12-1.6,31.58,31.58,0,0,1-2.55-3.6,1.15,1.15,0,0,1,.15-1,1,1,0,0,1,.95,0,10.91,10.91,0,0,1,3.83,6Z" style="fill:#dbdad8"/><path d="M19.17,63.9a31.07,31.07,0,0,1,1.36-3.33A1.51,1.51,0,0,1,21.88,60a1.48,1.48,0,0,1,.76,1.25,14.13,14.13,0,0,1-1.21,3.33c-.19.39-1,.82-1.32.69S19.49,64.4,19.17,63.9Z" style="fill:#dbdbd8"/><path d="M38.69,75.75c-.33-.65-.79-1.12-.74-1.52A26.67,26.67,0,0,1,38.81,70c.1-.34.86-.48,1.31-.71.2.43.61.91.55,1.31a24.79,24.79,0,0,1-.89,3.81C39.65,74.83,39.18,75.16,38.69,75.75Z" style="fill:#dbdad7"/><path d="M12.83,99.17c-1.51-1-2.82-4.52-2.26-6,.11-.3.6-.71.82-.66a1.56,1.56,0,0,1,1,.77C13,95.16,13.61,97.09,12.83,99.17Z" style="fill:#dbdbda"/><path d="M48.89,134.51c-.43,0-1,.09-1.24-.12-1.29-1-2.53-2.16-3.72-3.31a1,1,0,0,1,0-1,1.32,1.32,0,0,1,1-.32C46.36,130.09,48.74,132.9,48.89,134.51Z" style="fill:#dbd9d7"/><path d="M22.31,104.53c-.38-.3-.94-.51-1.06-.88a28.81,28.81,0,0,1-1-4c-.05-.3.42-.83.77-1,.2-.11.76.18,1,.44C22.88,100.12,23.07,103.19,22.31,104.53Z" style="fill:#dbdad7"/><path d="M20.19,90.27C18.92,89.22,18,85.4,18.7,84c.13-.27.61-.62.77-.55a1.58,1.58,0,0,1,.71.83A13.27,13.27,0,0,1,20.19,90.27Z" style="fill:#dbd9d6"/><path d="M65.77,148.63a6.89,6.89,0,0,1-2,.23,16.32,16.32,0,0,1-3.24-1.18c-.35-.17-.47-.79-.7-1.21.4-.21.83-.65,1.19-.6A6.28,6.28,0,0,1,65.77,148.63Z" style="fill:#dbd9d7"/><path d="M8,93.62c-1.5-.75-2.78-3.64-2.25-5.14.12-.33.68-.81.89-.74a1.73,1.73,0,0,1,1.08.91C8.26,90.24,8.72,91.87,8,93.62Z" style="fill:#dbdad8"/><path d="M22.18,119.21c-1.67-.77-2.35-2.33-3-3.87a1.31,1.31,0,0,1,.31-1.22,1.63,1.63,0,0,1,1.37.18A4.93,4.93,0,0,1,22.18,119.21Z" style="fill:#dbd9d7"/><path d="M36.31,86.55c-1.24-1.07-1.8-3.67-1.05-5a1.3,1.3,0,0,1,1-.61,1.28,1.28,0,0,1,.89.76A5.15,5.15,0,0,1,36.31,86.55Z" style="fill:#dbd9d6"/><path d="M16.27,73.11c-.25,1-.47,2-.78,3a.88.88,0,0,1-.69.52c-.23,0-.54-.35-.63-.61a6.44,6.44,0,0,1,.31-4.65,1,1,0,0,1,.83-.52c.25,0,.57.42.66.71a7.71,7.71,0,0,1,.16,1.53Z" style="fill:#dbdbd8"/><path d="M38.47,97.42c-1.57-.47-3.11-3.33-2.6-4.83a1.15,1.15,0,0,1,.68-.7,1,1,0,0,1,.86.46A6.86,6.86,0,0,1,38.47,97.42Z" style="fill:#dbd9d6"/><path d="M39.21,111c-.59-.39-1.22-.57-1.36-.93a31.49,31.49,0,0,1-1.14-4,1,1,0,0,1,.51-.81,1,1,0,0,1,.88.36A6.79,6.79,0,0,1,39.21,111Z" style="fill:#dbdcdb"/><path d="M29.87,113.34a5,5,0,0,1-2.55-4.09,1,1,0,0,1,1.61-.8C30,109.21,30.58,112.11,29.87,113.34Z" style="fill:#dbdbd8"/><path d="M63.71,143.5c-2.16.4-3.63-.71-5-1.91-.23-.19-.3-1-.14-1.13a1.63,1.63,0,0,1,1.34-.29A7.76,7.76,0,0,1,63.71,143.5Z" style="fill:#dbd9d6"/><path d="M38.17,123c-1.31-.2-3.7-2.55-3.8-3.84a1.27,1.27,0,0,1,.51-1.06,1.16,1.16,0,0,1,1.1.31c.91,1.41,1.73,2.88,2.58,4.33Z" style="fill:#dbd9d6"/><path d="M38.69,138.28a18.36,18.36,0,0,1-2.49-1.19,20.7,20.7,0,0,1-2.65-2.21c-.26-.25-.27-.75-.39-1.13.4,0,.88-.13,1.18,0a12.45,12.45,0,0,1,4.52,4.13Z" style="fill:#dbd7d3"/><path d="M12.06,113a5.84,5.84,0,0,1-2.5-4.31c-.05-.4.34-.86.53-1.3.42.23,1,.35,1.22.7A6.23,6.23,0,0,1,12.06,113Z" style="fill:#dbdad8"/><path d="M58.31,135.58c-1.57.1-4.57-1.88-5-3.25a.94.94,0,0,1,.19-.83.92.92,0,0,1,.87,0A10,10,0,0,1,58.31,135.58Z" style="fill:#dbd9d6"/><path d="M30.31,69c-1.1-1.12-.83-4.15.4-5A.79.79,0,0,1,32,64.8,5.1,5.1,0,0,1,30.31,69Z" style="fill:#dbd9d7"/><path d="M30.55,126.76c-2-.64-3-2.27-3.82-4-.13-.26.11-.71.18-1.07.34.1.85.09,1,.31,1,1.46,2,3,3,4.47Z" style="fill:#dbd8d4"/><path d="M15.24,108.72a4.25,4.25,0,0,1-2-4.12,1.23,1.23,0,0,1,.74-.78,1.18,1.18,0,0,1,.92.57A4.94,4.94,0,0,1,15.24,108.72Z" style="fill:#dbd8d5"/><path d="M5.56,75.22c-1.1-1-1-3.85.15-4.58a1,1,0,0,1,.86-.08,1.57,1.57,0,0,1,.56,1.06A5.29,5.29,0,0,1,5.56,75.22Z" style="fill:#dbd8d5"/><path d="M26,80.49a4.2,4.2,0,0,1-.76-3.92,1.33,1.33,0,0,1,1-.76c.28,0,.81.46.86.77A3.91,3.91,0,0,1,26,80.49Z" style="fill:#dbd9d6"/><path d="M49.69,142.76a6.47,6.47,0,0,1-4.33-2c-.26-.23-.24-.8-.35-1.22.4,0,.88-.21,1.19-.06A6.6,6.6,0,0,1,49.69,142.76Z" style="fill:#dbd6d2"/><path d="M72.78,147.74a3.31,3.31,0,0,1-3.66-1.21,1.34,1.34,0,0,1-.05-1.09,1.12,1.12,0,0,1,.9-.37A3.46,3.46,0,0,1,72.78,147.74Z" style="fill:#dbdad7"/><path d="M28.25,90a3.85,3.85,0,0,1-.75-3.9,1.18,1.18,0,0,1,.8-.57,1.16,1.16,0,0,1,.79.58A3.93,3.93,0,0,1,28.25,90Z" style="fill:#dbd8d4"/><path d="M9.66,68.25a4.52,4.52,0,0,1,.67-4.14,1,1,0,0,1,.91-.3c.2,0,.42.44.47.72A4.5,4.5,0,0,1,9.66,68.25Z" style="fill:#dbd9d6"/><path d="M20.91,75.2c-.13-1-.33-2.09-.37-3.13,0-.64.17-1.44,1-1.28.32.06.73.93.67,1.38a21,21,0,0,1-.79,3.07Z" style="fill:#dbd7d3"/><path d="M145.85,20.87c-.16,2.3-1.11,3.26-3.33,3a32.49,32.49,0,0,1-4.56-1,2,2,0,0,1-1.32-3.08q1.85-3.7,3.72-7.39c.45-.88,1-1.67,2.19-1.53a2.22,2.22,0,0,1,1.92,2C145,15.53,145.4,18.21,145.85,20.87Z" style="fill:#c5b69b"/><path d="M80.89,24.12c-1.85,0-2.43-.43-2.68-1.9q-.75-4.54-1.34-9.11a1.65,1.65,0,0,1,2.45-1.72,3.9,3.9,0,0,1,1.35,1.14c1.59,2.2,3.21,4.39,4.66,6.68,1.21,1.92.56,3.37-1.6,4Z" style="fill:#c5b59a"/><path d="M104.14,22.9c-.32.42-.62,1.16-1,1.2a1.8,1.8,0,0,1-1.33-.87,4.27,4.27,0,0,1-.55-2,1.44,1.44,0,0,1,.73-1.14,1.5,1.5,0,0,1,1.27.55A12.15,12.15,0,0,1,104.14,22.9Z" style="fill:#dbdbda"/><path d="M115,40.38c-1.06-1.13-.71-3.78.53-4.44.67-.36,1.27,0,1.19.86A4.51,4.51,0,0,1,115,40.38Z" style="fill:#dbd9d6"/><path d="M118.23,42.76a3.24,3.24,0,0,1,.3-4c.56-.45,1-.35,1.33.31C120.34,40.18,119.39,42.26,118.23,42.76Z" style="fill:#dbd7d3"/><path d="M118.82,20.62a23.91,23.91,0,0,1-1,2.15c-.16.26-.69.56-.85.47s-.64-.62-.59-.89a10,10,0,0,1,.81-2.4,1.09,1.09,0,0,1,1-.3C118.42,19.76,118.56,20.23,118.82,20.62Z" style="fill:#dbdad7"/><path d="M115.9,31.44a4.23,4.23,0,0,1,.11-3.92,1.06,1.06,0,0,1,.92-.48,1.09,1.09,0,0,1,.55.89A5,5,0,0,1,115.9,31.44Z" style="fill:#dbd6d1"/><path d="M110.49,39.69a3.55,3.55,0,0,1-.74-3.64.76.76,0,0,1,1.41,0A3.49,3.49,0,0,1,110.49,39.69Z" style="fill:#dbdbd8"/><path d="M103.15,29.73l-.8,1.12c-.37-.31-.9-.55-1.07-1A4.33,4.33,0,0,1,101,28a1,1,0,0,1,.58-.75,1.18,1.18,0,0,1,1,.46A11.35,11.35,0,0,1,103.15,29.73Z" style="fill:#dbd9d6"/><path d="M111,47.82a2.81,2.81,0,0,1-1.19-3.43c.38-.61.89-.65,1.34-.06A3.74,3.74,0,0,1,111,47.82Z" style="fill:#dbd9d6"/><path d="M106,36.09a4.45,4.45,0,0,1-1.62-3.56.93.93,0,0,1,.55-.74,1,1,0,0,1,.83.47A4.4,4.4,0,0,1,106,36.09Z" style="fill:#dbd8d5"/><path d="M121.87,32.64c-.29,1-.53,1.72-1.44,1.7s-1.12-.71-1.1-1.44.3-1.59,1.15-1.5C121,31.45,121.41,32.2,121.87,32.64Z" style="fill:#dbd6d1"/><path d="M107.65,26.77a3,3,0,0,1-.74-3.23,1.14,1.14,0,0,1,.68-.56c.19,0,.52.19.66.39A2.86,2.86,0,0,1,107.65,26.77Z" style="fill:#dbd6d2"/><path d="M111,56.61a2.8,2.8,0,0,1-1.07-3.09.82.82,0,0,1,1.56,0A2.79,2.79,0,0,1,111,56.61Z" style="fill:#dbd9d7"/><path d="M113.16,50.34c0-1-.17-2.05-.12-3.06,0-.3.51-.58.79-.86.24.32.62.63.68,1a3.21,3.21,0,0,1-.89,2.93Z" style="fill:#dbd9d6"/><path d="M111.41,30.4a28.79,28.79,0,0,1-.14-3.07c0-.3.51-.58.78-.87.22.36.65.75.62,1.09a26,26,0,0,1-.6,2.86Z" style="fill:#dad3cd"/><path d="M110.37,22a11.3,11.3,0,0,1-.33-2.28c0-.31.58-.6.9-.89.29.36.84.74.82,1.07a9.86,9.86,0,0,1-.63,2.12Z" style="fill:#dbd6d1"/><path d="M121.12,25.2c0-1.26.78-2.26,1.33-2a1.53,1.53,0,0,1,.65,1.17c0,.75-.12,1.64-1.11,1.62C121.63,26,121.29,25.36,121.12,25.2Z" style="fill:#dbd6d1"/><path d="M106.54,43.72a3.2,3.2,0,0,1-1.64-3.08c0-.22.35-.45.53-.67.19.18.51.33.55.54C106.19,41.46,106.32,42.43,106.54,43.72Z" style="fill:#dad3cd"/><path d="M132.35,55.89c-2.88-.16-5.21-.91-7-2.82a5.74,5.74,0,0,1-1.23-2.51,1.76,1.76,0,0,1,.71-1.45c.26-.18,1,.2,1.41.45a30.59,30.59,0,0,0,3.09,1.94,5.44,5.44,0,0,0,5.67-.65c.86-.63,1.7-1.31,2.6-1.91s1.69-1,2.51-.16a1.9,1.9,0,0,1,0,2.64A10.71,10.71,0,0,1,132.35,55.89Z" style="fill:#281b1c"/><path d="M89,57.06a9.33,9.33,0,0,1-7.7-4.8A1.6,1.6,0,0,1,81,51.5c0-.66.2-1.32.3-2a8.56,8.56,0,0,1,1.77.59c1.48.9,2.84,2,4.39,2.79a3.72,3.72,0,0,0,4.3-.88,12.37,12.37,0,0,1,2.42-1.93,2.07,2.07,0,0,1,1.85.09c.34.25.39,1.19.24,1.73C95.51,54.6,92,57.12,89,57.06Z" style="fill:#281b1c"/></g></g></svg>