<svg xmlns="http://www.w3.org/2000/svg" viewBox="0 0 138.83 100.6"><g id="Layer_2" data-name="Layer 2"><g id="OBJECTS"><path d="M24.74,81.51,23.51,80a4.93,4.93,0,0,0-.31-.75Q20.86,75.61,18.5,72c-.07-.1-.22-.14-.34-.21s-.05-.43-.07-.65l-.37-.38a2.85,2.85,0,0,0-.08-.51,32.12,32.12,0,0,1-2.07-10.88l-.16-.63a27.19,27.19,0,0,1,1-8.22c.36-1.25.58-2.53.87-3.79l.19-.32c.13-.51.25-1,.38-1.52a6.92,6.92,0,0,0,.47-.89,39.15,39.15,0,0,1,5.79-11c.31-.39.56-.84.84-1.26l1.37-1.6c.21-.16.44-.32.65-.49,2.32-1.86,4.63-3.75,7-5.58.88-.69,1.87-1.24,2.81-1.85l.87-.21c2-.82,4-1.73,6-2.42,2.57-.86,5.19-1.52,7.79-2.27L52.71,17l.82-.08c2.32-.24,4.63-.61,7-.69,1.92-.06,3.84.22,5.76.35l1.13.18L69,17a46.68,46.68,0,0,1,10.88,2.55,1.49,1.49,0,0,0,.66,0l.4.22a7.61,7.61,0,0,0,.75.51c2.14,1.16,4.33,2.22,6.41,3.48,1.45.87,2.75,2,4.13,3L93.79,28l1,1c1.51,1.46,3.07,2.86,4.5,4.39,1,1.09,1.89,2.34,2.83,3.52l.78,1.25c1.52,2.79,3,5.6,4.59,8.38a22,22,0,0,0,1.38,2l.69,1.64c-1.09.9-2.17,1.81-3.27,2.7-2.12,1.72-4.21,3.48-6.37,5.13a2.06,2.06,0,0,1-3.06-.3c-1.1-1.09-2.14-2.25-3.29-3.29-3.74-3.44-9-3.33-12.23.21-2.16,2.39-1.94,5.44.58,7.19A12.25,12.25,0,0,0,84.36,63c1.35.53,2.74,1,4.08,1.5,1.17.47,1.37.88.71,2a22.24,22.24,0,0,1-2.83,4C82.47,74.61,77.5,76.36,72,76.7c-5.2.34-10.41.44-15.62.64-1.86.07-3.72.09-5.58.19-7.54.43-13,4.21-17.08,10.39-.27-.14-.56-.26-.82-.41A36.57,36.57,0,0,1,24.74,81.51ZM42.58,68.64a.24.24,0,0,0,.06.08s0,0,0,0l-.12,0c0-1.19-2-4.13-3.06-4.52-.22-.07-.67,0-.73.1a1.18,1.18,0,0,0-.1,1C39.64,66.72,40.67,68.19,42.58,68.64ZM27.92,76.2a9.13,9.13,0,0,0,2.13-.49,1.68,1.68,0,0,0,.81-1.27A1.66,1.66,0,0,0,30,73.19a5.36,5.36,0,0,0-4.57.35,1.47,1.47,0,0,0-.63,1.26,1.85,1.85,0,0,0,1,1.11A8,8,0,0,0,27.92,76.2ZM39.31,48.53c.46-2.12-1.52-6.05-3.16-6.68a1.11,1.11,0,0,0-1,.11A1.2,1.2,0,0,0,35,43.05a36.89,36.89,0,0,0,2.38,4A9,9,0,0,0,39.31,48.53ZM39.8,33.2a8.41,8.41,0,0,0-2.35-4.48,1.3,1.3,0,0,0-1.21-.14,1.33,1.33,0,0,0-.54,1.09,7.48,7.48,0,0,0,2.19,4.24,1.54,1.54,0,0,0,1.3.32C39.51,34.11,39.64,33.5,39.8,33.2ZM27,37.88c-1,0-1.5.75-1.06,1.46a6.86,6.86,0,0,0,3.77,3.07c1,.32,1.71-.42,1.12-1.28A16.43,16.43,0,0,0,28,38.34,3.21,3.21,0,0,0,27,37.88Zm27.4,7.79c.64-2.63-.21-4.8-1.32-6.9a1.13,1.13,0,0,0-1-.37,1.27,1.27,0,0,0-.67,1C51.72,41.7,52.31,43.94,54.36,45.67Zm42.26-3.74c-.13-.27-.21-.69-.4-.76a1.31,1.31,0,0,0-1,.06,6.6,6.6,0,0,0-1.46,1.43,19.82,19.82,0,0,0-1.6,2.61,1,1,0,0,0,.18.92,1,1,0,0,0,.95,0A9.39,9.39,0,0,0,96.62,41.93ZM48.19,60.25A7.36,7.36,0,0,0,46,55.86a1.2,1.2,0,0,0-1-.15,1.24,1.24,0,0,0-.51,1,6.86,6.86,0,0,0,2.22,4,1.26,1.26,0,0,0,1,.25C48,60.85,48.13,60.36,48.19,60.25ZM46.68,26.13l-.14.06a28.85,28.85,0,0,0,.94,2.9,1.34,1.34,0,0,0,1,.68c.31,0,.71-.56.8-.94a5.34,5.34,0,0,0-.61-4,1.25,1.25,0,0,0-1-.5c-.32,0-.65.45-.84.77A3,3,0,0,0,46.68,26.13ZM27.13,51.47c.79,0,1.15-.45.91-1.2a6.19,6.19,0,0,0-3.43-2.8.88.88,0,0,0-1,1.19A5.53,5.53,0,0,0,27.13,51.47ZM76.52,24.84l-.13-.05A1.93,1.93,0,0,0,76.3,24c-.21-.35-.51-.79-.85-.87a1.1,1.1,0,0,0-1,.55,23.18,23.18,0,0,0-.59,3.7c0,.31.45.83.78.93s.82-.32,1-.63C76,26.75,76.24,25.78,76.52,24.84Zm13.93,10c0-.89-.53-1.29-1.22-1a5.89,5.89,0,0,0-2.45,3.53c0,.95.6,1.39,1.4.9A5.78,5.78,0,0,0,90.45,34.88Zm-6.23-5.53c-.32-.49-.52-1.1-.91-1.26s-.93.38-1.14.75A12,12,0,0,0,81,31.59c-.1.39.3.9.47,1.36.48-.18,1.19-.23,1.4-.57A23.76,23.76,0,0,0,84.22,29.35ZM52.85,70.23c.46-2.11-.49-3.64-1.45-5.14-.19-.3-.78-.35-1.19-.52-.14.42-.51.93-.38,1.24a28.93,28.93,0,0,0,1.85,3.64C51.87,69.78,52.37,69.93,52.85,70.23ZM77.2,67.85,78,69.16c.38-.25,1-.42,1.12-.78a17.28,17.28,0,0,0,1.16-3.28A1.35,1.35,0,0,0,79.6,64c-.21-.11-.9.23-1,.53C78,65.57,77.66,66.67,77.2,67.85ZM33.87,78.35a3.75,3.75,0,0,0-1.35.16c-.4.22-1,.67-1,1a1.53,1.53,0,0,0,.88,1.15,8.73,8.73,0,0,0,2.84,0,1.47,1.47,0,0,0,.87-1.07c0-.29-.51-.75-.9-.94A4.78,4.78,0,0,0,33.87,78.35ZM58.93,64,59,64a25.51,25.51,0,0,0-.72-3c-.12-.35-.64-.56-1-.84-.27.36-.79.73-.77,1.07a16.39,16.39,0,0,0,.61,3.4c.11.38.73.61,1.11.91.22-.41.44-.81.65-1.22A1.06,1.06,0,0,0,58.93,64Zm14.74-8a6.67,6.67,0,0,0,.85,1.44,1.18,1.18,0,0,0,1-.35,18.11,18.11,0,0,0,.94-3.31,1.2,1.2,0,0,0-.66-1,1.25,1.25,0,0,0-1.08.56A25.05,25.05,0,0,0,73.67,56ZM48.28,49.09c.62-1.19-.28-4.3-1.42-4.9a.83.83,0,0,0-1.28.69C45.44,46.05,47.12,48.67,48.28,49.09ZM80,46.66a4.2,4.2,0,0,0,2.5-3.58A1.55,1.55,0,0,0,82,42a.92.92,0,0,0-.84,0C79.91,42.72,79.23,45.31,80,46.66ZM69.51,60.94c1.3-.77,2-2.94,1.6-4.65-.06-.29-.34-.78-.5-.77-.31,0-.81.26-.87.51A27.45,27.45,0,0,0,69,59.72C68.93,60.08,69.3,60.5,69.51,60.94ZM55.07,57.22c1-1.87.42-3.47-.06-5a1.1,1.1,0,0,0-.88-.61,1.14,1.14,0,0,0-.65.89,27.76,27.76,0,0,0,.66,3.62C54.24,56.46,54.67,56.75,55.07,57.22ZM24.34,61c.51-.32,1.11-.5,1.28-.86s-.26-1-.59-1.15a9.86,9.86,0,0,0-2.57-1,1,1,0,0,0-.67,1.75A21.58,21.58,0,0,0,24.34,61Zm10,6.88a5.76,5.76,0,0,0-3.8-2.49,1.81,1.81,0,0,0-1.14.47c-.12.11,0,.67.18.9A5,5,0,0,0,34.34,67.89ZM63.47,54.77a20.13,20.13,0,0,0-.57-2.29,1,1,0,0,0-.78-.5c-.25,0-.71.4-.69.58a24.2,24.2,0,0,0,.64,4.09c.19.67.93.57,1.16-.14A9.37,9.37,0,0,0,63.47,54.77ZM68,46.47A7.14,7.14,0,0,0,68.38,48c.35.78,1.22.85,1.45.07a12.29,12.29,0,0,0,.34-3.38c0-.23-.6-.66-.88-.64a1.44,1.44,0,0,0-1,.74A6.87,6.87,0,0,0,68,46.47Zm-29.21,11a4.78,4.78,0,0,0-2.26-3.44.93.93,0,0,0-1.24,1.12c.15.83,1.9,2.6,2.71,2.64C38.32,57.84,38.63,57.58,38.82,57.5Zm7.09-19.61a4.32,4.32,0,0,0-.77-4.19.83.83,0,0,0-1.47.29C43.26,35.2,44.56,37.52,45.91,37.89ZM97.5,49.82c1.29,0,3.19-1.65,3.25-2.61,0-.71-.37-1-1-.92a3.94,3.94,0,0,0-2.57,2.59A2.25,2.25,0,0,0,97.5,49.82ZM64.05,28.72a3.48,3.48,0,0,0,.33-4.21.81.81,0,0,0-1.39.11A3.2,3.2,0,0,0,64.05,28.72ZM61.11,43.18a6,6,0,0,0,.35-4.7c-.3-.5-.87-.48-1.26.05C59.44,39.57,60,42.4,61.11,43.18ZM66.64,67a7.7,7.7,0,0,0-.26-1.64,1.14,1.14,0,0,0-.82-.59c-.23,0-.71.36-.71.57A30,30,0,0,0,65,68.84c0,.23.47.62.61.57a1.15,1.15,0,0,0,.67-.66A12.18,12.18,0,0,0,66.64,67Zm.49-29.78a4.61,4.61,0,0,0,1.16-4,.8.8,0,0,0-1.3-.46C65.84,33.53,65.93,36.37,67.13,37.17Zm-8,37.74A18.26,18.26,0,0,0,58,72.52a1.19,1.19,0,0,0-1.13-.33,1.36,1.36,0,0,0-.54,1.14,8.76,8.76,0,0,0,1.14,2.29,1.21,1.21,0,0,0,1.06.4C58.78,75.92,58.9,75.38,59.15,74.91ZM55.63,34.45a4.44,4.44,0,0,0,.43-4.31c-.13-.22-.5-.49-.7-.44a1.25,1.25,0,0,0-.73.61A3.75,3.75,0,0,0,55.63,34.45ZM70.81,72.56a3.2,3.2,0,0,0,.07.85c.19.37.44.72.66,1.07.33-.3.83-.55.94-.91a7.74,7.74,0,0,0,.36-2.43c0-.41-.48-.8-.74-1.2-.34.34-.81.62-1,1A6.89,6.89,0,0,0,70.81,72.56Zm3.6-31a4.7,4.7,0,0,0,1.81-3.29c.06-.45-.27-.95-.42-1.42-.4.29-1,.49-1.18.88A4.2,4.2,0,0,0,74.41,41.52ZM71.76,65c.23.4.48.81.72,1.22.39-.28,1-.48,1.14-.86a8.59,8.59,0,0,0,.54-2.47,1,1,0,0,0-.6-.8,1,1,0,0,0-.88.47A23.8,23.8,0,0,0,71.76,65Zm9.84,4.86c.27.44.39.87.66,1a.9.9,0,0,0,.87-.3,12.81,12.81,0,0,0,1.09-2.38,1,1,0,0,0-.42-.81.93.93,0,0,0-.88.21C82.42,68.27,82,69.06,81.6,69.84Zm-34.95,6.5A3.46,3.46,0,0,0,45,73.77a.92.92,0,0,0-.83-.09.89.89,0,0,0-.23.78A2.74,2.74,0,0,0,46.65,76.34Z" style="fill:#6f3f2b"/><path d="M33.75,87.92c4-6.18,9.54-10,17.08-10.39,1.86-.1,3.72-.12,5.58-.19,5.21-.2,10.42-.3,15.62-.64,5.47-.34,10.44-2.09,14.29-6.18a22.24,22.24,0,0,0,2.83-4c.66-1.1.46-1.51-.71-2-1.34-.54-2.73-1-4.08-1.5a12.25,12.25,0,0,1-2.42-1.16c-2.52-1.75-2.74-4.8-.58-7.19,3.18-3.54,8.49-3.65,12.23-.21,1.15,1,2.19,2.2,3.29,3.29a2.06,2.06,0,0,0,3.06.3c2.16-1.65,4.25-3.41,6.37-5.13,1.1-.89,2.18-1.8,3.27-2.7.51.68,1,1.35,1.54,2,2.51,3.46,6.16,5,10.15,5.78a65.33,65.33,0,0,0,7.69.53c-.07.37-.14.74-.2,1.11a3.64,3.64,0,0,0,2.67,4.25c.45.13.93.18,1.4.27-1,1.83-1.78,3.73-2.86,5.49a65.83,65.83,0,0,1-7.66,10.26,37.29,37.29,0,0,1-15.7,9.85c-2.64.92-5.3,1.75-8,2.57-.58.19-.87.37-1,1.07-.21,1.56-.59,3.11-.92,4.65a1.7,1.7,0,0,1-.41.93c-.5.4-1.12.93-1.67.91a1.93,1.93,0,0,1-1.39-1.11,34.09,34.09,0,0,1-.71-4.16c0-.33,0-.67-.06-1-1.94,0-2,0-2.26,1.77-.18,1.19-.36,2.39-.65,3.55a1.93,1.93,0,0,1-3.8.08,18.68,18.68,0,0,1-.7-3.22c-.1-.84-.4-1.13-1.25-1-3.36.35-6.71.83-10.08.92-3.86.11-7.75.45-11.62-.15-2.21-.34-4.44-.53-6.67-.74-1.54-.14-3.08-.22-4.72-.33A21.57,21.57,0,0,1,50.23,97a5,5,0,0,1-1,1.89,1.61,1.61,0,0,1-2.84-.71,12,12,0,0,1-.29-3.06c0-1.84-.33-2.14-2.37-2.16-.11,1.32-.18,2.65-.35,4a2.94,2.94,0,0,1-.55,1.52,2.06,2.06,0,0,1-1.44.78A2,2,0,0,1,40,98.15a24.47,24.47,0,0,1-.72-3.74,9.64,9.64,0,0,1-.19-2.26c.11-1.1-.41-1.6-1.34-2-1.33-.57-2.6-1.26-3.9-1.9C33.82,88.14,33.78,88,33.75,87.92Zm49.42-6.6c.08.62.13,1.41.3,2.18.59,2.67,3.19,5,6.19,4.23a7.6,7.6,0,0,0,4.7-11.16c-1.11-1.84-2.94-2.51-4.94-2.85a4.17,4.17,0,0,0-3.8,1.13C83.84,76.57,83.33,78.79,83.17,81.32Zm1.08-23.66a2.59,2.59,0,0,0,1.38,2.4c2.29,1.22,4.66,2.32,7,3.45a1.62,1.62,0,0,0,1.94-.57,1.6,1.6,0,0,0,.24-2,11.44,11.44,0,0,0-1.07-1.51c-1.69-2-3.57-3.64-6.22-4.18A2.67,2.67,0,0,0,84.25,57.66Zm18,7.68c-3.51,0-6.88,2.43-7.46,5.11-.1.43.18.94.28,1.41a4.06,4.06,0,0,0,1.37-.38c.84-.61,1.52-1.42,2.36-2,1.93-1.33,3.49-1.2,5.26.32a10,10,0,0,0,2,1.59,1.94,1.94,0,0,0,1.75-.08,1.87,1.87,0,0,0,.21-1.74A7.31,7.31,0,0,0,102.29,65.34Z" style="fill:#e7ae87"/><path d="M25,31.69c-.28.42-.53.87-.84,1.26a39.15,39.15,0,0,0-5.79,11,6.92,6.92,0,0,1-.47.89c-1.82-2-3.65-3.93-5.46-5.92s-3.36-3.75-5-5.64c-.77-.89-1.66-1.81-1-3.12s1.92-1.24,3.1-1.07c4.87.72,9.74,1.5,14.6,2.27A4.49,4.49,0,0,1,25,31.69Z" style="fill:#37545c"/><path d="M51.47,17.27c-2.6.75-5.22,1.41-7.79,2.27-2,.69-4,1.6-6,2.42-.94-5.18-.42-10.4-.37-15.6A2.22,2.22,0,0,1,38.65,4.1a2.39,2.39,0,0,1,2.62.77,6.38,6.38,0,0,1,.72.75Z" style="fill:#37545c"/><path d="M66.25,16.58c-1.92-.13-3.84-.41-5.76-.35-2.33.08-4.64.45-7,.69l-.82.08c.73-4.91,1.45-9.83,2.19-14.73A3.74,3.74,0,0,1,55.36,1,1.83,1.83,0,0,1,58.19.44a3.85,3.85,0,0,1,1,1.27Q62.77,9.14,66.25,16.58Z" style="fill:#37545c"/><path d="M92.23,26.77c-1.38-1-2.68-2.15-4.13-3-2.08-1.26-4.27-2.32-6.41-3.48a7.61,7.61,0,0,1-.75-.51c3.21-3.41,6.41-6.82,9.65-10.21a2.3,2.3,0,0,1,2.79-.75,2.43,2.43,0,0,1,1.32,2.7c-.34,2.9-.76,5.8-1.18,8.7-.24,1.64-.52,3.27-.82,4.89A16.79,16.79,0,0,1,92.23,26.77Z" style="fill:#39565d"/><path d="M36.79,22.17c-.94.61-1.93,1.16-2.81,1.85-2.36,1.83-4.67,3.72-7,5.58-.21.17-.44.33-.65.49-2.48-4.1-5-8.19-7.41-12.32a1.84,1.84,0,0,1,.19-2.23A2,2,0,0,1,21.3,15a5.38,5.38,0,0,1,1,.33Z" style="fill:#38545c"/><path d="M80.54,19.54a1.49,1.49,0,0,1-.66,0A46.68,46.68,0,0,0,69,17l-1.62-.26,3.27-7.42.29-.56,1-2.13.29-.57c.24-.57.49-1.14.74-1.71l.29-.57c.21-.77.44-1.54,1.35-1.79h1.36l.7.57.31.53L77.2,4l.12.42.09.41.1.42.09.42c0,.2.09.41.13.61s.06.28.08.42.09.42.13.62,0,.28.07.42l.12.62c0,.21.07.41.11.62l.12.62.09.62.08.42c0,.21.08.42.11.62l.08.42.15.82.1.42.3,1.46.08.41c.12.48.23,1,.34,1.45,0,.14.08.27.11.41s.06.28.1.42l.11.41.09.42.11.41c0,.14.07.28.1.42l.11.41Z" style="fill:#345259"/><path d="M17.3,46.68c-.29,1.26-.51,2.54-.87,3.79a27.19,27.19,0,0,0-1,8.22l-.5,0-.73-.32-1.36-.71-1.75-.94-.53-.31L9.2,55.73l-.53-.31-1.34-.73-.52-.31-.93-.52-.53-.31L4.43,53l-.52-.32-.52-.3-.51-.33-.73-.49-1-1-.07,0v-.08C1,50.25.88,50,.78,49.77s0-.54,0-.82l.93-1.21L2,47.63l.58-.21L3,47.33l1.44-.16.84-.05L7.54,47l1,0c1.19.05,2.38.12,3.57.15.12,0,.24-.2.36-.31l1.25,0,2.07-.14,1-.06Z" style="fill:#345259"/><path d="M33.75,87.92c0,.11.07.22.1.33-4.05,2.23-8.09,4.48-12.15,6.69a8.28,8.28,0,0,1-2,.78A2,2,0,0,1,17.22,93a9.8,9.8,0,0,1,1.21-2.28c2.08-3.09,4.2-6.16,6.31-9.23a36.57,36.57,0,0,0,8.19,6C33.19,87.66,33.48,87.78,33.75,87.92Z" style="fill:#38555c"/><path d="M102.14,36.94c-.94-1.18-1.8-2.43-2.83-3.52-1.43-1.53-3-2.93-4.5-4.39l-1-1a9.26,9.26,0,0,1,1-.88q4.54-3,9.13-6.05a5,5,0,0,1,1.2-.6,1.89,1.89,0,0,1,2.64,1.85,3.81,3.81,0,0,1-.23,1.42C105.75,28.15,103.94,32.54,102.14,36.94Z" style="fill:#38555c"/><path d="M108.89,48.55a22,22,0,0,1-1.38-2c-1.56-2.78-3.07-5.59-4.59-8.38,4.24-1.35,8.48-2.71,12.73-4a1.89,1.89,0,0,1,2.34.58,2,2,0,0,1-.14,2.42c-.94,1.33-1.93,2.61-2.94,3.89C112.92,43.55,110.9,46.05,108.89,48.55Z" style="fill:#37545c"/><path d="M14,59.77l.74-.37a.42.42,0,0,0,.09.14,29.65,29.65,0,0,0,.29,3.79c.51,2.48,1.18,4.93,1.78,7.39l-2.28.19-2.49-.07-2.69-.15-1.66-.08-1.86-.13-.84,0-1.86-.16-.83-.06-1.54-.5-.36-.37c0-.67,0-1.35,0-2v-.08l.07,0,.6-.61.34-.25L1.94,66l.53-.3.92-.55.53-.28a2.38,2.38,0,0,0,.6-.13q4.5-2.22,9-4.49C13.69,60.16,13.81,59.94,14,59.77Z" style="fill:#345259"/><path d="M18.16,71.74c.12.07.27.11.34.21q2.36,3.66,4.7,7.32a4.93,4.93,0,0,1,.31.75c-3.69,1.43-7.39,2.87-11.09,4.28a6.75,6.75,0,0,1-1.61.38A1.91,1.91,0,0,1,8.73,82a2.86,2.86,0,0,1,.55-1Q13.71,76.33,18.16,71.74Z" style="fill:#38555c"/><path d="M132.83,64.17c-.47-.09-1-.14-1.4-.27a3.64,3.64,0,0,1-2.67-4.25c.06-.37.13-.74.2-1.11a29,29,0,0,1,2.15-2.75,5.12,5.12,0,0,1,3.95-1.53,3.65,3.65,0,0,1,3.43,5.23A7.41,7.41,0,0,1,132.83,64.17Z" style="fill:#281a1c"/><path d="M14,59.77c-.16.17-.28.39-.47.49q-4.48,2.27-9,4.49a2.38,2.38,0,0,1-.6.13c.65-.38,1.27-.79,1.94-1.12C8.56,62.41,11.27,61.1,14,59.77Z" style="fill:#415d64"/><path d="M12.52,46.75c-.12.11-.24.31-.36.31C11,47,9.78,47,8.59,46.91Z" style="fill:#415d64"/><path d="M14.59,70.91l2.28-.19h.85l.37.38Z" style="fill:#415d64"/><path d="M9.41,70.69l2.69.15Z" style="fill:#415d64"/><path d="M7.54,47l-2.27.17Z" style="fill:#415d64"/><path d="M15.84,46.56l-2.07.14Z" style="fill:#415d64"/><path d="M5.89,70.48l1.86.13Z" style="fill:#415d64"/><path d="M3.19,70.27l1.86.16Z" style="fill:#415d64"/><path d="M.45,67.31c0,.68,0,1.36,0,2A1.36,1.36,0,0,1,.45,67.31Z" style="fill:#415d64"/><path d="M1.73,47.74.8,49Z" style="fill:#415d64"/><path d="M4.43,47.17,3,47.33Z" style="fill:#415d64"/><path d="M.82,69.71l1.54.5Z" style="fill:#415d64"/><path d="M1.14,50.6l1,1Z" style="fill:#415d64"/><path d="M12.82,57.7l1.36.71Z" style="fill:#415d64"/><path d="M14.91,58.73l.5,0c.06.21.11.42.16.63l-.77.22a.42.42,0,0,1-.09-.14C14.77,59.17,14.84,59,14.91,58.73Z" style="fill:#415d64"/><path d="M75.92,2h0Z" style="fill:#39565d"/><path d="M3.39,65.16l-.92.55Z" style="fill:#415d64"/><path d="M1.12,66.59l-.6.61Z" style="fill:#415d64"/><path d="M77.73,6.23c0-.2-.09-.41-.13-.61C77.64,5.82,77.69,6,77.73,6.23Z" style="fill:#39565d"/><path d="M77.94,7.27c0-.2-.09-.41-.13-.62C77.85,6.86,77.9,7.07,77.94,7.27Z" style="fill:#39565d"/><path d="M78.13,8.31,78,7.69Z" style="fill:#39565d"/><path d="M78.36,9.55l-.12-.62Z" style="fill:#39565d"/><path d="M.78,49.77c.1.24.2.48.29.72C1,50.25.88,50,.78,49.77Z" style="fill:#415d64"/><path d="M17.3,46.68l-.42-.18.61-.14Z" style="fill:#415d64"/><path d="M80.42,19.09l-.11-.41Z" style="fill:#39565d"/><path d="M10.54,56.45l.53.31C10.89,56.66,10.71,56.56,10.54,56.45Z" style="fill:#415d64"/><path d="M80.21,18.26l-.11-.41Z" style="fill:#39565d"/><path d="M80,17.43,79.9,17C79.93,17.16,80,17.29,80,17.43Z" style="fill:#39565d"/><path d="M1.94,66l-.48.33Z" style="fill:#415d64"/><path d="M2.88,52.09l.51.33Z" style="fill:#415d64"/><path d="M79.8,16.6c0-.14-.07-.27-.11-.41C79.73,16.33,79.77,16.46,79.8,16.6Z" style="fill:#39565d"/><path d="M79.35,14.74c0-.14-.06-.28-.08-.41C79.29,14.46,79.32,14.6,79.35,14.74Z" style="fill:#39565d"/><path d="M79,12.87l-.1-.42Z" style="fill:#39565d"/><path d="M78.72,11.63l-.08-.42Z" style="fill:#39565d"/><path d="M78.53,10.59l-.08-.42Z" style="fill:#39565d"/><path d="M3.91,52.72l.52.32Z" style="fill:#415d64"/><path d="M70.94,8.78l-.29.56Z" style="fill:#39565d"/><path d="M5.35,53.55l.53.31Z" style="fill:#415d64"/><path d="M6.81,54.38l.52.31Z" style="fill:#415d64"/><path d="M72.18,6.08l-.29.57Z" style="fill:#39565d"/><path d="M8.67,55.42l.53.31Z" style="fill:#415d64"/><path d="M77.51,5.2l-.1-.42Z" style="fill:#39565d"/><path d="M77.32,4.37,77.2,4Z" style="fill:#39565d"/><path d="M73.21,3.8l-.29.57Z" style="fill:#39565d"/><path d="M76.93,3.12l-.31-.53Z" style="fill:#39565d"/><path d="M2.57,47.42,2,47.63Z" style="fill:#415d64"/><path d="M27.92,76.2a8,8,0,0,1-2.1-.29,1.85,1.85,0,0,1-1-1.11,1.47,1.47,0,0,1,.63-1.26A5.36,5.36,0,0,1,30,73.19a1.66,1.66,0,0,1,.84,1.25,1.68,1.68,0,0,1-.81,1.27A9.13,9.13,0,0,1,27.92,76.2Z" style="fill:#f6c9dd"/><path d="M39.31,48.53A9,9,0,0,1,37.39,47a36.89,36.89,0,0,1-2.38-4A1.2,1.2,0,0,1,35.13,42a1.11,1.11,0,0,1,1-.11C37.79,42.48,39.77,46.41,39.31,48.53Z" style="fill:#f7cade"/><path d="M39.8,33.2c-.16.3-.29.91-.61,1a1.54,1.54,0,0,1-1.3-.32,7.48,7.48,0,0,1-2.19-4.24,1.33,1.33,0,0,1,.54-1.09,1.3,1.3,0,0,1,1.21.14A8.41,8.41,0,0,1,39.8,33.2Z" style="fill:#f7cade"/><path d="M27,37.88a3.21,3.21,0,0,1,1,.46,16.43,16.43,0,0,1,2.8,2.79c.59.86-.09,1.6-1.12,1.28a6.86,6.86,0,0,1-3.77-3.07C25.46,38.63,26,37.91,27,37.88Z" style="fill:#f7cade"/><path d="M54.36,45.67c-2-1.73-2.64-4-3-6.28a1.27,1.27,0,0,1,.67-1,1.13,1.13,0,0,1,1,.37C54.15,40.87,55,43,54.36,45.67Z" style="fill:#f7cade"/><path d="M96.62,41.93a9.39,9.39,0,0,1-3.38,4.26,1,1,0,0,1-.95,0,1,1,0,0,1-.18-.92,19.82,19.82,0,0,1,1.6-2.61,6.6,6.6,0,0,1,1.46-1.43,1.31,1.31,0,0,1,1-.06C96.41,41.24,96.49,41.66,96.62,41.93Z" style="fill:#f7cade"/><path d="M48.19,60.25c-.06.11-.17.6-.42.7a1.26,1.26,0,0,1-1-.25,6.86,6.86,0,0,1-2.22-4,1.24,1.24,0,0,1,.51-1,1.2,1.2,0,0,1,1,.15A7.36,7.36,0,0,1,48.19,60.25Z" style="fill:#f7cade"/><path d="M46.68,26.13a3,3,0,0,1,.18-1c.19-.32.52-.73.84-.77a1.25,1.25,0,0,1,1,.5,5.34,5.34,0,0,1,.61,4c-.09.38-.49.91-.8.94a1.34,1.34,0,0,1-1-.68,28.85,28.85,0,0,1-.94-2.9Z" style="fill:#f7cade"/><path d="M27.13,51.47a5.53,5.53,0,0,1-3.5-2.81.88.88,0,0,1,1-1.19A6.19,6.19,0,0,1,28,50.27C28.28,51,27.92,51.49,27.13,51.47Z" style="fill:#f7cade"/><path d="M76.52,24.84c-.28.94-.51,1.91-.88,2.82-.13.31-.7.7-1,.63s-.8-.62-.78-.93a23.18,23.18,0,0,1,.59-3.7,1.1,1.1,0,0,1,1-.55c.34.08.64.52.85.87a1.93,1.93,0,0,1,.09.81Z" style="fill:#f6c9dc"/><path d="M90.45,34.88a5.78,5.78,0,0,1-2.27,3.4c-.8.49-1.41,0-1.4-.9a5.89,5.89,0,0,1,2.45-3.53C89.92,33.59,90.47,34,90.45,34.88Z" style="fill:#f6c9dd"/><path d="M84.22,29.35a23.76,23.76,0,0,1-1.32,3c-.21.34-.92.39-1.4.57-.17-.46-.57-1-.47-1.36a12,12,0,0,1,1.14-2.75c.21-.37.89-.85,1.14-.75S83.9,28.86,84.22,29.35Z" style="fill:#f6c9dc"/><path d="M52.85,70.23c-.48-.3-1-.45-1.17-.78a28.93,28.93,0,0,1-1.85-3.64c-.13-.31.24-.82.38-1.24.41.17,1,.22,1.19.52C52.36,66.59,53.31,68.12,52.85,70.23Z" style="fill:#f6c9dd"/><path d="M77.2,67.85c.46-1.18.83-2.28,1.35-3.32.15-.3.84-.64,1-.53a1.35,1.35,0,0,1,.65,1.1,17.28,17.28,0,0,1-1.16,3.28c-.17.36-.74.53-1.12.78Z" style="fill:#f5c8db"/><path d="M33.87,78.35a4.78,4.78,0,0,1,1.38.26c.39.19.93.65.9.94a1.47,1.47,0,0,1-.87,1.07,8.73,8.73,0,0,1-2.84,0,1.53,1.53,0,0,1-.88-1.15c0-.33.56-.78,1-1A3.75,3.75,0,0,1,33.87,78.35Z" style="fill:#f6c9dc"/><path d="M58.93,64a1.06,1.06,0,0,1,0,.31c-.21.41-.43.81-.65,1.22-.38-.3-1-.53-1.11-.91a16.39,16.39,0,0,1-.61-3.4c0-.34.5-.71.77-1.07.34.28.86.49,1,.84A25.51,25.51,0,0,1,59,64Z" style="fill:#f6c9dc"/><path d="M73.67,56a25.05,25.05,0,0,1,1-2.66,1.25,1.25,0,0,1,1.08-.56,1.2,1.2,0,0,1,.66,1,18.11,18.11,0,0,1-.94,3.31,1.18,1.18,0,0,1-1,.35A6.67,6.67,0,0,1,73.67,56Z" style="fill:#f6c9dc"/><path d="M48.28,49.09c-1.16-.42-2.84-3-2.7-4.21a.83.83,0,0,1,1.28-.69C48,44.79,48.9,47.9,48.28,49.09Z" style="fill:#f6c9dd"/><path d="M80,46.66c-.78-1.35-.1-3.94,1.19-4.61A.92.92,0,0,1,82,42a1.55,1.55,0,0,1,.47,1A4.2,4.2,0,0,1,80,46.66Z" style="fill:#f5c8db"/><path d="M69.51,60.94c-.21-.44-.58-.86-.53-1.22A27.45,27.45,0,0,1,69.74,56c.06-.25.56-.5.87-.51.16,0,.44.48.5.77C71.51,58,70.81,60.17,69.51,60.94Z" style="fill:#f5c8db"/><path d="M14.8,59.54l.77-.22A32.12,32.12,0,0,0,17.64,70.2a2.85,2.85,0,0,1,.08.51h-.85c-.6-2.46-1.27-4.91-1.78-7.39A29.65,29.65,0,0,1,14.8,59.54Z" style="fill:#345259"/><path d="M55.07,57.22c-.4-.47-.83-.76-.93-1.13a27.76,27.76,0,0,1-.66-3.62,1.14,1.14,0,0,1,.65-.89,1.1,1.1,0,0,1,.88.61C55.49,53.75,56,55.35,55.07,57.22Z" style="fill:#f5c8dc"/><path d="M24.34,61a21.58,21.58,0,0,1-2.55-1.23A1,1,0,0,1,22.46,58,9.86,9.86,0,0,1,25,59c.33.18.7.89.59,1.15S24.85,60.69,24.34,61Z" style="fill:#f7cade"/><path d="M34.34,67.89a5,5,0,0,1-4.76-1.12c-.18-.23-.3-.79-.18-.9a1.81,1.81,0,0,1,1.14-.47A5.76,5.76,0,0,1,34.34,67.89Z" style="fill:#f5c8dc"/><path d="M63.47,54.77a9.37,9.37,0,0,1-.24,1.74c-.23.71-1,.81-1.16.14a24.2,24.2,0,0,1-.64-4.09c0-.18.44-.57.69-.58a1,1,0,0,1,.78.5A20.13,20.13,0,0,1,63.47,54.77Z" style="fill:#f6c9dd"/><path d="M68,46.47a6.87,6.87,0,0,1,.31-1.7,1.44,1.44,0,0,1,1-.74c.28,0,.89.41.88.64a12.29,12.29,0,0,1-.34,3.38c-.23.78-1.1.71-1.45-.07A7.14,7.14,0,0,1,68,46.47Z" style="fill:#f5c8db"/><path d="M38.82,57.5c-.19.08-.5.34-.79.32-.81,0-2.56-1.81-2.71-2.64a.93.93,0,0,1,1.24-1.12A4.78,4.78,0,0,1,38.82,57.5Z" style="fill:#f4c7da"/><path d="M45.91,37.89c-1.35-.37-2.65-2.69-2.24-3.9a.83.83,0,0,1,1.47-.29A4.32,4.32,0,0,1,45.91,37.89Z" style="fill:#f5c8db"/><path d="M97.5,49.82a2.25,2.25,0,0,1-.36-.94,3.94,3.94,0,0,1,2.57-2.59c.67-.08,1.09.21,1,.92C100.69,48.17,98.79,49.85,97.5,49.82Z" style="fill:#f5c8dc"/><path d="M64.05,28.72A3.2,3.2,0,0,1,63,24.62a.81.81,0,0,1,1.39-.11A3.48,3.48,0,0,1,64.05,28.72Z" style="fill:#f5c8db"/><path d="M42.58,68.64c-1.91-.45-2.94-1.92-3.9-3.44a1.18,1.18,0,0,1,.1-1c.06-.13.51-.17.73-.1,1.09.39,3.05,3.33,3.06,4.52Z" style="fill:#f5c8db"/><path d="M61.11,43.18c-1.11-.78-1.67-3.61-.91-4.65.39-.53,1-.55,1.26-.05A6,6,0,0,1,61.11,43.18Z" style="fill:#f6c9dd"/><path d="M66.64,67a12.18,12.18,0,0,1-.35,1.8,1.15,1.15,0,0,1-.67.66c-.14,0-.59-.34-.61-.57a30,30,0,0,1-.16-3.55c0-.21.48-.59.71-.57a1.14,1.14,0,0,1,.82.59A7.7,7.7,0,0,1,66.64,67Z" style="fill:#f7cade"/><path d="M67.13,37.17c-1.2-.8-1.29-3.64-.14-4.44a.8.8,0,0,1,1.3.46A4.61,4.61,0,0,1,67.13,37.17Z" style="fill:#f7cade"/><path d="M59.15,74.91c-.25.47-.37,1-.64,1.11a1.21,1.21,0,0,1-1.06-.4,8.76,8.76,0,0,1-1.14-2.29,1.36,1.36,0,0,1,.54-1.14,1.19,1.19,0,0,1,1.13.33A18.26,18.26,0,0,1,59.15,74.91Z" style="fill:#f6c9dc"/><path d="M55.63,34.45a3.75,3.75,0,0,1-1-4.14,1.25,1.25,0,0,1,.73-.61c.2-.05.57.22.7.44A4.44,4.44,0,0,1,55.63,34.45Z" style="fill:#f4c7da"/><path d="M70.81,72.56A6.89,6.89,0,0,1,71.12,71c.17-.41.64-.69,1-1,.26.4.73.79.74,1.2a7.74,7.74,0,0,1-.36,2.43c-.11.36-.61.61-.94.91-.22-.35-.47-.7-.66-1.07A3.2,3.2,0,0,1,70.81,72.56Z" style="fill:#f5c8db"/><path d="M74.41,41.52a4.2,4.2,0,0,1,.21-3.83c.19-.39.78-.59,1.18-.88.15.47.48,1,.42,1.42A4.7,4.7,0,0,1,74.41,41.52Z" style="fill:#f4c7da"/><path d="M71.76,65a23.8,23.8,0,0,1,.92-2.44,1,1,0,0,1,.88-.47,1,1,0,0,1,.6.8,8.59,8.59,0,0,1-.54,2.47c-.16.38-.75.58-1.14.86C72.24,65.79,72,65.38,71.76,65Z" style="fill:#f7cade"/><path d="M81.6,69.84c.44-.78.82-1.57,1.32-2.28a.93.93,0,0,1,.88-.21,1,1,0,0,1,.42.81,12.81,12.81,0,0,1-1.09,2.38.9.9,0,0,1-.87.3C82,70.71,81.87,70.28,81.6,69.84Z" style="fill:#f4c7da"/><path d="M46.65,76.34A2.74,2.74,0,0,1,44,74.46a.89.89,0,0,1,.23-.78.92.92,0,0,1,.83.09A3.46,3.46,0,0,1,46.65,76.34Z" style="fill:#f2c5d8"/><path d="M42.57,68.66l.12,0s0,0,0,0a.24.24,0,0,1-.06-.08Z" style="fill:#f5c8db"/><path d="M83.17,81.32c.16-2.53.67-4.75,2.45-6.47a4.17,4.17,0,0,1,3.8-1.13c2,.34,3.83,1,4.94,2.85a7.6,7.6,0,0,1-4.7,11.16c-3,.75-5.6-1.56-6.19-4.23C83.3,82.73,83.25,81.94,83.17,81.32Z" style="fill:#dbe2e3"/><path d="M84.25,57.66a2.67,2.67,0,0,1,3.27-2.41c2.65.54,4.53,2.22,6.22,4.18a11.44,11.44,0,0,1,1.07,1.51,1.6,1.6,0,0,1-.24,2,1.62,1.62,0,0,1-1.94.57c-2.34-1.13-4.71-2.23-7-3.45A2.59,2.59,0,0,1,84.25,57.66Z" style="fill:#cd834d"/><path d="M102.29,65.34a7.31,7.31,0,0,1,5.78,4.22,1.87,1.87,0,0,1-.21,1.74,1.94,1.94,0,0,1-1.75.08,10,10,0,0,1-2-1.59c-1.77-1.52-3.33-1.65-5.26-.32-.84.59-1.52,1.4-2.36,2a4.06,4.06,0,0,1-1.37.38c-.1-.47-.38-1-.28-1.41C95.41,67.77,98.78,65.33,102.29,65.34Z" style="fill:#291a1b"/></g></g></svg>