<svg xmlns="http://www.w3.org/2000/svg" viewBox="0 0 93 145.33"><g id="Layer_2" data-name="Layer 2"><g id="OBJECTS"><path d="M.58,59.64a.4.4,0,0,0,.09-.17l2.14-1.3c2.34-1.46,4.48-3.11,5.56-5.78,1,.6,2,1.13,2.85,1.82a14.57,14.57,0,0,1,5.09,7.11l.33.54c.48,1.51,1,3,1.45,4.52l-.51.32a8,8,0,0,1-2.58-4c-.09-.25-.4-.42-.61-.64a3.11,3.11,0,0,0-.52.64c-.48,1-.84,2-1.41,2.95-.73,1.2-1.79,1.23-2.48,0a18.56,18.56,0,0,1-1-3.08,5.19,5.19,0,0,0-.64-1,9.29,9.29,0,0,0-.67.88,20.91,20.91,0,0,1-1.95,3.11c-.82.92-1.6.61-2.06-.53a4,4,0,0,0-.6-.78,5.79,5.79,0,0,0-.66.65c-.51.76-1,1.53-1.49,2.3L.6,67.07c0-.8,0-1.6-.13-2.39,0-.15-.31-.27-.47-.4V63c.65.55.52-.16.53-.38C.58,61.6.57,60.62.58,59.64Z" style="fill:#38575e"/><path d="M0,64.28c.16.13.46.25.47.4.08.79.1,1.59.13,2.39l.28.14c.5-.77,1-1.54,1.49-2.3A5.79,5.79,0,0,1,3,64.26a4,4,0,0,1,.6.78c.46,1.14,1.24,1.45,2.06.53a20.91,20.91,0,0,0,1.95-3.11,9.29,9.29,0,0,1,.67-.88,5.19,5.19,0,0,1,.64,1,18.56,18.56,0,0,0,1,3.08c.69,1.22,1.75,1.19,2.48,0,.57-.92.93-2,1.41-2.95a3.11,3.11,0,0,1,.52-.64c.21.22.52.39.61.64a8,8,0,0,0,2.58,4c.15.29.3.59.44.88l-.43.16c-1.41-.47-2-1.75-2.77-2.83l-.4-.72c-.13.32-.2.51-.28.69s-.14.17-.19.26c-.66,1.09-1.21,2.42-2.74,2.37S9,66.15,8.41,64.92l-.24-1.06-.52,1.06L5.06,67H4.18l-.9-.5c-.22-.47-.46-.73-.75,0l-1.83,2H.47L0,67.8Z" style="fill:#d4dcde"/><path d="M.58,59.64c0,1,0,2,0,2.94,0,.22.12.93-.53.38v-3.3Z" style="fill:#d4dcde"/><path d="M.47,68.46H.7L.58,70H0V68.68Z" style="fill:#d0d8db"/><path d="M16.31,61.32a14.57,14.57,0,0,0-5.09-7.11c-.89-.69-1.9-1.22-2.85-1.82L7.69,52l-6.21-2.8-.11-.3c.14-1.24.28-2.48.41-3.71l.08-.46c0-.58.09-1.16.13-1.74,0-.23.07-.45.1-.67l.78-6.81L3,35c.79-4.32,1.78-8.61,2.31-13,.66-5.51,1-11.06,1.32-16.61.09-1.65.9-2.46,2.52-1.4a73,73,0,0,1,7.34,5.19,5.26,5.26,0,0,0,5.08,1.2A76.54,76.54,0,0,1,32.91,9c6.87-.39,13.75-.63,20.62-.63,5.7,0,11.4.44,17.1.65a1.79,1.79,0,0,0,1.18-.59c2.09-2.29,4.1-4.67,6.24-6.93A4.1,4.1,0,0,1,80.44,0c1.17,0,1.49,1.29,1.73,2.26,1.81,7.2,3.69,14.38,5.29,21.63.9,4,1.31,8.15,1.93,12.23,0,.15,0,.3.07.45.13,1.24.25,2.48.38,3.72,0,.15,0,.31.07.46,0,.51.08,1,.13,1.52,0,.16,0,.31.07.46.06.58.11,1.16.17,1.74,0,.15,0,.31.07.46l0,.39a6.41,6.41,0,0,0-1.33.4c-2.83,1.56-5,3.87-7.25,6.14a39.35,39.35,0,0,0-7.89,11.67c-.45,1-.72,2.12-1.08,3.18h0l-.4.66-2.1,7.32c0,.46-.09.92-.13,1.37a2.06,2.06,0,0,0-.23.59c-.15,2.59-.28,5.19-.41,7.79.06.66.12,1.32.19,2A10.9,10.9,0,0,0,70,88.57a2,2,0,0,0,3.49.85A12.09,12.09,0,0,0,74.51,88c.6-.79,1.18-1.59,2-2.64.1,1.25.19,2.11.25,3a38.73,38.73,0,0,0,1.91,10.17,13.58,13.58,0,0,0,1,1.91c0,.18,0,.36,0,.54.38.91.75,1.83,1.13,2.74-.86,1.15-1.72,2.29-2.57,3.44a8.44,8.44,0,0,0-.47.83L73,110.9l-.87.45L66,114.13l-.87.29c-2.29.7-4.58,1.38-6.87,2.09a10.09,10.09,0,0,0-1.16.53l-5,1.12-1.24.17-9.22-.12-1.23,0c-2.52-.43-5-.87-7.55-1.29-1.08-.17-2.18-.23-3.25-.45-4.72-1-8.74-3.45-12.63-6.13a46.93,46.93,0,0,1-3.77-3.15,26.64,26.64,0,0,0,2.53-9l.11-.88.11-.44.12-1.31.12-.66.06-5.08h.48l.78.51c.43.53.87.54,1.3,0,.82-.1,1.08-.67,1.19-1.38l.15-.65.07-1.1c0-.44.08-.89.11-1.33l0-7.24c-.05-.36-.09-.73-.13-1.09,0-.15,0-.3,0-.45L20.05,76a.13.13,0,0,1,0-.13l-.12-1.44-.1-.45c-.05-.36-.09-.73-.13-1.09,0-.15-.07-.29-.11-.44l-1-4.65a.48.48,0,0,0,0-.2c-.13-.39-.26-.79-.4-1.19-.48-1.51-1-3-1.45-4.52ZM80.23,42.67c.78-2.58,1.76-5.12,2.31-7.75a15.66,15.66,0,0,0-1.79-11.85,19.82,19.82,0,0,0-5.57-5.53c-5.06-3.61-10.56-5.36-16.84-4.11a43.09,43.09,0,0,0-13.42,4.68,39,39,0,0,0-4.07-2.18c-2.59-1-5.24-1.86-7.9-2.65A15.74,15.74,0,0,0,26,12.59c-7.34,1.11-13.21,4.5-16.74,11.19-4,7.54-2.95,15,1.05,22.19-.05.43-.1.86-.16,1.29a5.39,5.39,0,0,0,1.44,4.93c1.91,1.77,4,3.29,6.89,2.85a32.75,32.75,0,0,0,10.88,5.8c3,.85,6,1.77,9,2.46a18.25,18.25,0,0,0,5,.45,38,38,0,0,0,12.52-3c3-1.25,6-2.46,9-3.79a23.55,23.55,0,0,0,7.46-4.54h.33c5.65,1,8.07-3.88,8-7.62A12.37,12.37,0,0,0,80.23,42.67ZM50.09,74.76a17.5,17.5,0,0,0-1.67-5.66A2,2,0,0,0,46.34,68a2.64,2.64,0,0,0-1.65,1.2,16.18,16.18,0,0,0-1.3,3.71A7.8,7.8,0,0,0,43.73,78a2.86,2.86,0,0,0,2.5,1.87A2.69,2.69,0,0,0,49,78.26,27.41,27.41,0,0,0,50.09,74.76Zm10.39-4.5.18,0c0,.3,0,.59,0,.88a3.2,3.2,0,0,0,2.46,3.22A3,3,0,0,0,66.45,72a9.57,9.57,0,0,0-1.27-8.08A1.6,1.6,0,0,0,63.25,63a2.89,2.89,0,0,0-1.55,1.48C61.16,66.37,60.87,68.33,60.48,70.26ZM54.35,88.09a13,13,0,0,0,.57,2.53,2.38,2.38,0,0,0,4.23.64,4.68,4.68,0,0,0,1-2.91,37.35,37.35,0,0,0-1.3-5.85,6,6,0,0,0-1.12-2,1.34,1.34,0,0,0-2.46.19,3.09,3.09,0,0,0-.44,1.23C54.65,83.82,54.53,85.72,54.35,88.09ZM30.07,100.28c-.5-2-.89-4-1.57-5.9A2.73,2.73,0,0,0,26.62,93c-.38-.07-1.16.81-1.39,1.4a13.74,13.74,0,0,0-1,3.82,18.76,18.76,0,0,0,.28,4.55,2.28,2.28,0,0,0,2.16,1.9,2.42,2.42,0,0,0,2.47-1.5A19.42,19.42,0,0,0,30.07,100.28Zm14.11,4a32.43,32.43,0,0,0,1,3.51,2,2,0,0,0,2.3,1.31,2.22,2.22,0,0,0,1.87-1.79,11,11,0,0,0-1-8c-.37-.71-1-1.25-1.78-1a2.67,2.67,0,0,0-1.46,1.4A38.58,38.58,0,0,0,44.18,104.29Zm25.1-4.84c-.42-1.62-.78-3.21-1.24-4.77a1.71,1.71,0,0,0-1.83-1.3A1.83,1.83,0,0,0,64.65,95c-.18.82-.37,1.63-.55,2.45a8.2,8.2,0,0,0,.09,5,2.29,2.29,0,0,0,2,1.66,2.08,2.08,0,0,0,2.19-1.33A23.75,23.75,0,0,0,69.28,99.45ZM79.76,12.1c0-.92-.08-2.34-.2-3.75-.07-.78-.32-1.54-1.23-1.74a1.61,1.61,0,0,0-1.8.94c-.9,1.51-1.79,3-2.62,4.55a1.85,1.85,0,0,0,.75,2.64,6.07,6.07,0,0,0,1.19.53C79.05,16.49,79.78,16,79.76,12.1ZM39.14,103.23c-.26-1.75-.52-3.49-2.19-4.56a1.36,1.36,0,0,0-2.22,1.06c-.12.86-.33,1.72-.37,2.59a17.35,17.35,0,0,0,0,3.88c.27,1.61,2,2,3.19.9S38.88,104.63,39.14,103.23Zm21.19,1.42c-.15-2.16-.1-3.87-1.3-5.16a2.1,2.1,0,0,0-1.69-.61,2.05,2.05,0,0,0-1.21,1.34,21.45,21.45,0,0,0-.43,4.23,5.38,5.38,0,0,0,.56,2.52A2.55,2.55,0,0,0,58,108.16a2.23,2.23,0,0,0,1.66-1.08A9.51,9.51,0,0,0,60.33,104.65ZM35.16,86.33H35c.13,1.27.18,2.55.43,3.79a2,2,0,0,0,2,1.86c1,0,1.78-.61,2.1-1.88.6-2.48-.2-4.7-1.41-6.79a1.71,1.71,0,0,0-2.21-.71c-.42.2-.63,1-.74,1.64A12,12,0,0,0,35.16,86.33Zm14.11,4.26c-.4-1.46-.74-2.83-1.17-4.17a1.64,1.64,0,0,0-2-1.18c-.94.16-1.2,1-1.28,1.81s-.18,1.52-.21,2.27c0,1.34-.11,2.67,0,4a1.6,1.6,0,0,0,1.51,1.5,1.81,1.81,0,0,0,2-1.07C48.58,92.75,48.89,91.67,49.27,90.59ZM24.75,84.73h.09v.66c.06,1.54.85,2.66,2,2.81S29,87.44,29.42,86A9,9,0,0,0,29,80.71a1.93,1.93,0,0,0-3.72.35C25.12,82.28,24.94,83.51,24.75,84.73ZM34.91,70.56a13.18,13.18,0,0,0,.38,2.16A1.89,1.89,0,0,0,37,74.2a2.12,2.12,0,0,0,2.11-1.1c1.17-1.9.63-5.57-1.12-7a2,2,0,0,0-1.67-.42,2.3,2.3,0,0,0-1.07,1.48A23,23,0,0,0,34.91,70.56ZM26,70.16h-.09c.11.61.18,1.22.32,1.82a2.35,2.35,0,0,0,2.07,2,2.49,2.49,0,0,0,2-2,8,8,0,0,0-.72-5.51,1.86,1.86,0,0,0-2.11-1.21c-1,.21-1.25,1-1.31,1.91S26,69.15,26,70.16ZM9.05,11.4H9c.06,1,.1,2,.18,2.94a1.71,1.71,0,0,0,2.42,1.53,21.52,21.52,0,0,0,2.2-1,1.74,1.74,0,0,0,.54-3A18.66,18.66,0,0,0,11.93,9.6a3.09,3.09,0,0,0-2.1-.79C8.87,9,9,10.12,9.05,11,9.06,11.11,9.05,11.25,9.05,11.4ZM57.83,70.57a16.08,16.08,0,0,0-.89-2.9C56.56,67,55.84,66,55.23,66c-1.13-.06-1.34,1.19-1.46,2.11A37.19,37.19,0,0,0,53.41,73a1.61,1.61,0,0,0,1.64,1.61,1.88,1.88,0,0,0,2-1.28A28.08,28.08,0,0,0,57.83,70.57ZM63,84.92l.13,0v.66c0,1.32.65,2.24,1.63,2.4A2.37,2.37,0,0,0,67,86.3a5.16,5.16,0,0,0-.56-5.37c-.36-.46-1.06-1-1.53-.92a2.06,2.06,0,0,0-1.25,1.29A28.6,28.6,0,0,0,63,84.92Z" style="fill:#40cbbc"/><path d="M66,114.13l6.13-2.78c2.93,8.68,6.31,17.2,9.72,25.72.17-.21.25-.4.2-.54q-4.52-12.81-9-25.63L77.69,108q7.05,11.64,14.08,23.29a17.24,17.24,0,0,1,1,1.73,2.1,2.1,0,0,1-1.18,3.06,11.92,11.92,0,0,1-1.57.49c-2.17.62-4.39,1.12-6.52,1.88-5.65,2-11.25,4.14-16.88,6.22-.38.14-.76.27-1.14.38-2.49.74-3.68,0-4-2.6-.24-1.7-.31-3.43-.61-5.12-1.14-6.41-2.34-12.81-3.51-19.22-.07-.36-.13-.72-.19-1.08a10.09,10.09,0,0,1,1.16-.53c2.29-.71,4.58-1.39,6.87-2.09a203.41,203.41,0,0,0,6.44,26.86,10.77,10.77,0,0,0-.23-2.84c-.73-3-1.6-6-2.25-9C68,124.32,67,119.22,66,114.13Z" style="fill:#36545c"/><path d="M72.77,66.71c.36-1.06.63-2.16,1.08-3.18a39.35,39.35,0,0,1,7.89-11.67C84,49.59,86.16,47.28,89,45.72a6.41,6.41,0,0,1,1.33-.4c.05.23.09.46.13.69l.15,1.12.06.86.16,1.34.06.86c.05.44.1.89.16,1.33l.07,1.75C91,55.1,90.19,55.68,88.63,55a2.61,2.61,0,0,1-.8-.57c-1.11-1.17-1.1-1.17-2.13,0C84.29,56,83,55.84,81.83,54.05l-.63-1a2.65,2.65,0,0,0,1.39,2.85c1.83,1.14,3-.14,4.12-1.24,1.66,1.53,2.24,1.69,4.52,1.26L91.32,57l.08.92.15,4c-1.5-.45-1.47-.43-2.42,1.1a20.21,20.21,0,0,1-2.16,3c-1,1-2,.84-2.44-.49a22.6,22.6,0,0,1-.57-3.1,5.15,5.15,0,0,0-.51-1.06,5.63,5.63,0,0,0-.72.84,31.88,31.88,0,0,1-1.8,3.24c-.93,1.28-1.7,1.22-2.44-.21a18.15,18.15,0,0,1-.86-2.91,10,10,0,0,0-.51-1.11,7.12,7.12,0,0,0-.89.84C75.06,63.62,73.92,65.17,72.77,66.71Z" style="fill:#38565e"/><path d="M70.28,74.69l2.1-7.33.47,0a5.82,5.82,0,0,0,1-.71c.89-1.07,1.74-2.17,2.61-3.25l.46,0a19.16,19.16,0,0,0,1.41,3.12c.75,1.1,1.67,1.12,2.7.24a14.82,14.82,0,0,0,1.46-1.6h.83c.45,1.1.89,2.21,2.24,2.49l.22.29.22-.28,2.31-1.44.53-.67.52-.83h1l1.09,1.33.23.4-.12,3.12c0,.29,0,.58,0,.87s-.15.74-.22,1.11h0a8.3,8.3,0,0,0-.84.94c-.8,1.22-1.57,2.46-2.35,3.69-.19.21-.37.43-.55.64l-.64.49-.51.08c-1.2-.43-1.5-1.48-1.75-2.56l-.12-.45a6.38,6.38,0,0,0-.14-1.08,5.51,5.51,0,0,0-.47-.9c-.26.26-.61.47-.76.78-.35.72-.56,1.51-.89,2.24A13.87,13.87,0,0,1,81,77.84c-.84,1.16-1.83,1.06-2.42-.23A11.6,11.6,0,0,1,78,75.73l-.1-.46c-.05-.62-.06-1.24-.17-1.84a.84.84,0,0,0-.5-.58c-.19,0-.51.25-.6.47a14.78,14.78,0,0,1-.93,2.32,16.81,16.81,0,0,1-2,2.12h-.5c-.38-.2-.86-.3-1.11-.6C71.42,76.38,70.87,75.52,70.28,74.69ZM88.43,70h.1v-.67h-.1ZM88.19,72h.18l-.08-.43-.1,0Zm-.4,3.14h.08v-.32h-.08Zm.3-1.86H88v.33h.08Z" style="fill:#34525a"/><path d="M19.66,72.86c0,.36.08.73.13,1.09l.1.45L20,75.84a3.86,3.86,0,0,0-.92.57c-1.27,1.43-1.82,1.43-3-.1-.45-.58-.83-1.22-1.29-1.78a5.16,5.16,0,0,0-.87-.74,4.69,4.69,0,0,0-.63.92,5,5,0,0,1-2.53,3L10,77.5C9.48,76.65,9,75.78,8.37,75a6.8,6.8,0,0,0-.8-.81A3.68,3.68,0,0,0,6.8,75c-1.31,2.57-2.37,3.14-5.24,2.72a3.27,3.27,0,0,0-.44,0A.71.71,0,0,0,1,77.49L.85,76.38c0-.29,0-.58,0-.87-.05-1-.11-1.91-.16-2.87L.58,70,.7,68.47l1.83-2,.75,0,.9.5c.28.56.58.56.88,0l2.59-2.08h.76c.6,1.23,1.21,2.55,2.8,2.59s2.08-1.28,2.74-2.37c.05-.09.13-.17.19-.26l.68,0c.77,1.08,1.36,2.36,2.77,2.83l.94,0,1,4.65C19.59,72.57,19.62,72.71,19.66,72.86Z" style="fill:#34525a"/><path d="M69.51,84.43c.13-2.6.26-5.2.41-7.79a2.06,2.06,0,0,1,.23-.59c.29.42.55.87.87,1.26,1.59,1.94,3.55,1.85,5-.22.31-.46.57-1,.83-1.41a21.22,21.22,0,0,0,1.07,2.77,2,2,0,0,0,3.39.47,10.06,10.06,0,0,0,1.39-2.08,18.81,18.81,0,0,0,.8-1.78,20.78,20.78,0,0,0,1,2.06c1.09,1.68,2.69,1.79,4,.23.66-.82,1.18-1.76,1.79-2.63A4.66,4.66,0,0,1,91,74l-.15,1.68c0,.22-.09.45-.14.67l-.09.64-.11.68-.12.86-.12.68-.08.64c0,.3-.09.6-.14.9l-.52,3.94-.15.9-.08.64-.11.46c0,.14-.07.28-.1.42-.21.71-.41,1.43-.64,2.22a4.48,4.48,0,0,1-2.7-3.48,7.7,7.7,0,0,0-.64-1.48,15.23,15.23,0,0,0-1,1.29c-.47.74-.79,1.59-1.32,2.26a1.61,1.61,0,0,1-2.88-.1,11.07,11.07,0,0,1-2.1-5,4,4,0,0,0-.6-1.19,5,5,0,0,0-1,.7c-1.08,1.24-2,2.59-3.19,3.76s-2.25.93-2.84-.74A4.81,4.81,0,0,0,69.51,84.43Z" style="fill:#37555d"/><path d="M20.35,78.57c0,2.41,0,4.83,0,7.24h0a4.18,4.18,0,0,0-.9.64c-1.17,1.41-2.13,1.38-3.1-.14-.43-.68-.81-1.39-1.27-2a3.88,3.88,0,0,0-.79-.64,4.38,4.38,0,0,0-.45.89,6.15,6.15,0,0,1-2.35,3.84,1.47,1.47,0,0,1-2.4-.5c-.41-.69-.7-1.45-1.1-2.15A4.07,4.07,0,0,0,7.23,85a7.23,7.23,0,0,0-.46.87c-.11.31-.1.66-.2,1a5.42,5.42,0,0,1-2.82,3.38l-.47-1.05-.09-.42c-.19-.82-.39-1.63-.58-2.44l-.09-.42c-.11-.52-.22-1-.34-1.56,0-.14,0-.28-.07-.42L2,83.19l-.07-.42-.15-.68c0-.14-.05-.28-.08-.42s-.09-.45-.14-.68-.05-.28-.07-.42c-.06-.3-.12-.6-.17-.89l-.06-.43c.05-.2.09-.41.15-.67,2.94.93,4.79-.46,6.19-2.92.39.63.71,1.19,1.08,1.72,1.25,1.82,2.45,1.92,4,.27a24.94,24.94,0,0,0,1.61-2.2c.61.77,1.15,1.55,1.79,2.24a1.87,1.87,0,0,0,2.9.17,11.23,11.23,0,0,0,.86-.83h.43l0,.45C20.26,77.84,20.3,78.21,20.35,78.57Z" style="fill:#37555c"/><path d="M79.58,100.46a14.69,14.69,0,0,1-.94-1.91,38.73,38.73,0,0,1-1.91-10.17c-.06-.87-.15-1.73-.25-3-.79,1-1.37,1.85-2,2.64a12.09,12.09,0,0,1-1.07,1.38A2,2,0,0,1,70,88.57a10.9,10.9,0,0,1-.25-2.15c1.22,1.6,2.36,1.77,3.85.4a34.2,34.2,0,0,0,2.31-2.63l.9-1.09c.35,1.07.56,2,.94,2.86a14.34,14.34,0,0,0,1.41,2.47,2.52,2.52,0,0,0,4.32.26,19.81,19.81,0,0,0,1.43-2A5.64,5.64,0,0,0,88,90.32c-.16.9-.3,1.72-.44,2.55l-.24.87c-.06.15-.11.31-.16.46l-.18.51c-.23.57-.46,1.13-.7,1.69s-.63,1.18-1,1.77a2.24,2.24,0,0,1-2.18-1.32c-.16-.32-.52-.76-.77-.74s-.65.4-.83.72C80.85,98,80.23,99.24,79.58,100.46Z" style="fill:#37575e"/><path d="M15.82,97.25c0,.29-.07.59-.1.88h-.48a9.57,9.57,0,0,0-.54-.94,8.5,8.5,0,0,0-.72-.75,9.19,9.19,0,0,0-.6.93,26.54,26.54,0,0,1-1.24,2.77c-.47.79-1.1.74-1.59-.08C9.92,99,9.31,98,8.65,97a2.74,2.74,0,0,0-.73-.55,3.86,3.86,0,0,0-.49.75c-.16.46-.24.94-.42,1.64L5.91,97c-.24-.58-.49-1.16-.74-1.74C4.81,94.15,4.41,93,4.1,91.86a1.14,1.14,0,0,1,.25-.9c.91-1,1.88-2,2.83-3l.64-.28c1.56,2.46,3.18,2.71,5,.66a17.72,17.72,0,0,0,1.64-2.56l.4,0,1.84,2.38-.23.68-.26.86-.06,5.08-.12.66-.12,1.31C15.89,97,15.86,97.11,15.82,97.25Z" style="fill:#35535b"/><path d="M91,74a4.66,4.66,0,0,0-.72.68c-.61.87-1.13,1.81-1.79,2.63-1.28,1.56-2.88,1.45-4-.23a20.78,20.78,0,0,1-1-2.06,18.81,18.81,0,0,1-.8,1.78,10.06,10.06,0,0,1-1.39,2.08,2,2,0,0,1-3.39-.47,21.22,21.22,0,0,1-1.07-2.77c-.26.44-.52.95-.83,1.41-1.41,2.07-3.37,2.16-5,.22-.32-.39-.58-.84-.87-1.26,0-.45.09-.91.13-1.37.59.84,1.14,1.7,1.79,2.49.25.3.73.4,1.11.6h.5a16.81,16.81,0,0,0,2-2.12,14.78,14.78,0,0,0,.93-2.32c.09-.22.41-.49.6-.47a.84.84,0,0,1,.5.58c.11.6.12,1.22.17,1.84l.1.46a11.6,11.6,0,0,0,.53,1.88c.59,1.29,1.58,1.39,2.42.23a13.87,13.87,0,0,0,1.28-2.41c.33-.73.54-1.52.89-2.24.15-.31.5-.52.76-.78a5.51,5.51,0,0,1,.47.9,6.38,6.38,0,0,1,.14,1.08l.12.45c.25,1.08.55,2.13,1.75,2.56l.51-.08.64-.49c.18-.21.36-.43.55-.64.78-1.23,1.55-2.47,2.35-3.69a8.3,8.3,0,0,1,.84-.94Z" style="fill:#d2dbdd"/><path d="M1.48,49.16,7.69,52c-1.44,3.12-4.21,4.78-7,6.39,0-.45,0-.89,0-1.33l.15-2.21c0-.44,0-.87.07-1.31s.1-.89.14-1.33l.09-1.08.13-.9.09-.86Z" style="fill:#38575e"/><path d="M91.42,66.05l-1.09-1.33L90,63.53c-.29.49-.49.84-.69,1.19l-.52.83-.53.67L86,67.66h-.44c-1.35-.28-1.79-1.39-2.24-2.49-.06-.32-.13-.65-.23-1.21l-.6,1.21A14.82,14.82,0,0,1,81,66.76c-1,.88-1.95.86-2.7-.24a19.16,19.16,0,0,1-1.41-3.12l-.16-.4-.3.37c-.87,1.08-1.72,2.18-2.61,3.25a5.82,5.82,0,0,1-1,.71c0-.21,0-.42-.07-.63h0c1.15-1.54,2.29-3.09,3.46-4.62a7.12,7.12,0,0,1,.89-.84,10,10,0,0,1,.51,1.11,18.15,18.15,0,0,0,.86,2.91c.74,1.43,1.51,1.49,2.44.21a31.88,31.88,0,0,0,1.8-3.24,5.63,5.63,0,0,1,.72-.84A5.15,5.15,0,0,1,84,62.46a22.6,22.6,0,0,0,.57,3.1C85,66.89,86,67.09,87,66.05a20.21,20.21,0,0,0,2.16-3c1-1.53.92-1.55,2.42-1.1a2,2,0,0,1-.08.26c-.16.11-.45.21-.45.32a10.78,10.78,0,0,0,.15,1.38l.48.82Z" style="fill:#d2dbde"/><path d="M87.54,92.87c.14-.83.28-1.65.44-2.55a5.64,5.64,0,0,1-3.12-3.66,19.81,19.81,0,0,1-1.43,2,2.52,2.52,0,0,1-4.32-.26A14.34,14.34,0,0,1,77.7,86c-.38-.85-.59-1.79-.94-2.86l-.9,1.09a34.2,34.2,0,0,1-2.31,2.63c-1.49,1.37-2.63,1.2-3.85-.4-.07-.67-.13-1.33-.19-2a4.81,4.81,0,0,1,.63,1c.59,1.67,1.59,2,2.84.74s2.11-2.52,3.19-3.76a5,5,0,0,1,1-.7,4,4,0,0,1,.6,1.19,11.07,11.07,0,0,0,2.1,5,1.61,1.61,0,0,0,2.88.1c.53-.67.85-1.52,1.32-2.26a15.23,15.23,0,0,1,1-1.29,7.7,7.7,0,0,1,.64,1.48,4.48,4.48,0,0,0,2.7,3.48c.23-.79.43-1.51.64-2.22a4.17,4.17,0,0,1,0,1c-.35,1.41-.73,2.81-1.13,4.21C87.86,92.55,87.67,92.7,87.54,92.87Z" style="fill:#d1dbdd"/><path d="M15.24,98.13h.48a26.89,26.89,0,0,1-2.54,9l-2.38-2.23-.42-.5-.47-.59-.39-.53-1.4-2.1-.33-.57-.3-.73.78-1.61c.62.93,1.14,1.81,1.75,2.62a1.44,1.44,0,0,0,2.49.2,23,23,0,0,0,1.81-2.76l1,.75c.07-.27.13-.38.11-.47A3.13,3.13,0,0,0,15.24,98.13Z" style="fill:#3c5c63"/><path d="M14.48,85.82a17.72,17.72,0,0,1-1.64,2.56c-1.84,2.05-3.46,1.8-5-.66l-.31-.63L7.18,88c-.95,1-1.92,2-2.83,3a1.14,1.14,0,0,0-.25.9c.31,1.16.71,2.29,1.07,3.44-.52-1.37-1-2.74-1.55-4.11a4.54,4.54,0,0,1-.26-1,10,10,0,0,1-.08-1.1l.47,1.05A5.42,5.42,0,0,0,6.57,86.8c.1-.3.09-.65.2-1A7.23,7.23,0,0,1,7.23,85a4.07,4.07,0,0,1,.71.73c.4.7.69,1.46,1.1,2.15a1.47,1.47,0,0,0,2.4.5,6.15,6.15,0,0,0,2.35-3.84,4.38,4.38,0,0,1,.45-.89,3.88,3.88,0,0,1,.79.64c.46.66.84,1.37,1.27,2,1,1.52,1.93,1.55,3.1.14a4.18,4.18,0,0,1,.9-.64L20,87.13c-.89.91-1.86,1.61-3.24,1.09l-1.84-2.38-.26-.35Z" style="fill:#d2dbdd"/><path d="M19.77,77a11.23,11.23,0,0,1-.86.83,1.87,1.87,0,0,1-2.9-.17c-.64-.69-1.18-1.47-1.79-2.24a24.94,24.94,0,0,1-1.61,2.2c-1.51,1.65-2.71,1.55-4-.27-.37-.53-.69-1.09-1.08-1.72-1.4,2.46-3.25,3.85-6.19,2.92-.06.26-.1.47-.15.67l-.11-1.59a3.27,3.27,0,0,1,.44,0c2.87.42,3.93-.15,5.24-2.72a3.68,3.68,0,0,1,.77-.81,6.8,6.8,0,0,1,.8.81c.58.83,1.11,1.7,1.66,2.55l.75.22a5,5,0,0,0,2.53-3,4.69,4.69,0,0,1,.63-.92,5.16,5.16,0,0,1,.87.74c.46.56.84,1.2,1.29,1.78,1.17,1.53,1.72,1.53,3,.1a3.86,3.86,0,0,1,.92-.57.13.13,0,0,0,0,.13C20,76.32,19.87,76.67,19.77,77Z" style="fill:#d2dbdd"/><path d="M40.38,118.19l1.23,0c.14,3.07.35,6.13.38,9.2a8.9,8.9,0,0,1-.79,3c-.13.32-.7.46-1.06.69-.1-.41-.23-.82-.29-1.23,0-.15.11-.31.22-.62a19,19,0,0,1-2.45.55,3.55,3.55,0,0,1-1.28-.44c.27-.34.46-.84.81-1,1.14-.49,2.33-.84,3.57-1.27C40.61,124.16,40.49,121.18,40.38,118.19Z" style="fill:#261d1f"/><path d="M50.83,118.33l1.24-.17c.24,2.58.45,5.17.74,7.75a8.89,8.89,0,0,1-1,4.54c-.15.34-.65.53-1,.8-.11-.41-.22-.82-.3-1.23,0-.13,0-.27.11-.58-.37.19-.64.32-.89.47-.5.3-1.1.78-1.52.08s.29-1,.78-1.32c.81-.48,1.65-.93,2.49-1.39Q51.17,122.8,50.83,118.33Z" style="fill:#261d1f"/><path d="M15.24,98.13a3.13,3.13,0,0,1,.16.52c0,.09,0,.2-.11.47l-1-.75a23,23,0,0,1-1.81,2.76,1.44,1.44,0,0,1-2.49-.2c-.61-.81-1.13-1.69-1.75-2.62l-.78,1.61c-.53-.77-1.07-1.53-1.57-2.31-.08-.14,0-.38,0-.57L7,98.81c.18-.7.26-1.18.42-1.64a3.86,3.86,0,0,1,.49-.75,2.74,2.74,0,0,1,.73.55c.66,1,1.27,2,1.9,3.09.49.82,1.12.87,1.59.08a26.54,26.54,0,0,0,1.24-2.77,9.19,9.19,0,0,1,.6-.93,8.5,8.5,0,0,1,.72.75A9.57,9.57,0,0,1,15.24,98.13Z" style="fill:#d1dbdd"/><path d="M80.73,103.74c-.38-.91-.75-1.83-1.13-2.74a4.85,4.85,0,0,0,1.09-.9c.57-.84,1-1.76,1.38-2.38L84.6,99A9.65,9.65,0,0,1,80.73,103.74Z" style="fill:#3b5a61"/><path d="M91.23,55.94c-2.28.43-2.86.27-4.52-1.26-1.15,1.1-2.29,2.38-4.12,1.24a2.65,2.65,0,0,1-1.39-2.85l.63,1c1.12,1.79,2.46,1.91,3.87.34,1-1.15,1-1.15,2.13,0a2.61,2.61,0,0,0,.8.57c1.56.7,2.39.12,2.48-1.71a8.21,8.21,0,0,1,.27,1.38A7.09,7.09,0,0,1,91.23,55.94Z" style="fill:#d0d8db"/><path d="M.66,58.35c2.82-1.61,5.59-3.27,7-6.39l.68.43c-1.08,2.67-3.22,4.32-5.56,5.78L.67,59.47C.67,59.09.66,58.72.66,58.35Z" style="fill:#d0d8db"/><path d="M84.6,99l-2.53-1.3c-.35.62-.81,1.54-1.38,2.38a4.85,4.85,0,0,1-1.09.9c0-.18,0-.36,0-.54.64-1.22,1.26-2.44,1.94-3.63.18-.32.54-.71.83-.72s.61.42.77.74a2.24,2.24,0,0,0,2.18,1.32C85.08,98.46,84.84,98.74,84.6,99Z" style="fill:#d0d8db"/><path d="M91.53,69.57l.12-3.12Z" style="fill:#d2dbdd"/><path d="M.64,72.64c0,1,.11,1.91.16,2.87C.75,74.55.69,73.6.64,72.64Z" style="fill:#d0d8db"/><path d="M2.61,86.27c.19.81.39,1.62.58,2.44C3,87.89,2.8,87.08,2.61,86.27Z" style="fill:#d2dbdd"/><path d="M.79,54.81.64,57Z" style="fill:#d0d8db"/><path d="M91.17,63.89A10.78,10.78,0,0,1,91,62.51c0-.11.29-.21.45-.32,0,.54,0,1.08.07,1.62Z" style="fill:#38565e"/><path d="M86.26,96.4c.24-.56.47-1.12.7-1.69C86.73,95.28,86.5,95.84,86.26,96.4Z" style="fill:#d0d8db"/><path d="M2.18,84.29c.12.52.23,1,.34,1.56C2.41,85.33,2.3,84.81,2.18,84.29Z" style="fill:#d2dbdd"/><path d="M1,52.17c0,.44-.09.89-.14,1.33C.91,53.06,1,52.61,1,52.17Z" style="fill:#d0d8db"/><path d="M91,51.52c-.06-.44-.11-.89-.16-1.33C90.93,50.63,91,51.08,91,51.52Z" style="fill:#d0d8db"/><path d="M90.82,49.33,90.66,48Z" style="fill:#d0d8db"/><path d="M90.6,47.13,90.45,46Z" style="fill:#d0d8db"/><path d="M91.26,71.55c.07-.37.14-.74.22-1.11C91.4,70.81,91.33,71.18,91.26,71.55Z" style="fill:#d2dbdd"/><path d="M.85,76.38,1,77.49Z" style="fill:#d0d8db"/><path d="M89.35,85.63l.15-.9Z" style="fill:#d1dbdd"/><path d="M90,80.79c0-.3.1-.6.14-.9C90.12,80.19,90.07,80.49,90,80.79Z" style="fill:#d2dbdd"/><path d="M91.4,57.92,91.32,57Z" style="fill:#d0d8db"/><path d="M1.22,50.19l-.13.9Z" style="fill:#d0d8db"/><path d="M1.29,79.68c.05.29.11.59.17.89C1.4,80.27,1.34,80,1.29,79.68Z" style="fill:#d2dbdd"/><path d="M91.17,63.89l.37-.08c0,.3.08.6.11.9Z" style="fill:#5e767c"/><path d="M90.24,79.25l.12-.68Z" style="fill:#d2dbdd"/><path d="M90.48,77.71l.11-.68Z" style="fill:#d2dbdd"/><path d="M1.75,82.09l.15.68Z" style="fill:#d2dbdd"/><path d="M1.53,81c.05.23.09.45.14.68C1.62,81.44,1.58,81.22,1.53,81Z" style="fill:#d2dbdd"/><path d="M2,83.19l.14.68Z" style="fill:#d2dbdd"/><path d="M2.09,42.28c0,.22-.07.44-.1.67C2,42.72,2.06,42.5,2.09,42.28Z" style="fill:#d0d8db"/><path d="M90.68,76.39c0-.22.09-.45.14-.67Z" style="fill:#d2dbdd"/><path d="M89.16,86.73l.11-.46Z" style="fill:#d1dbdd"/><path d="M1.48,49.16l-.17.17.06-.47C1.41,49,1.45,49.06,1.48,49.16Z" style="fill:#d0d8db"/><path d="M3,35l-.08.45Z" style="fill:#d0d8db"/><path d="M87.14,94.2c0-.15.1-.31.16-.46C87.24,93.89,87.19,94.05,87.14,94.2Z" style="fill:#d1dbdd"/><path d="M1.86,44.69l-.08.46C1.81,45,1.83,44.84,1.86,44.69Z" style="fill:#d0d8db"/><path d="M90.35,44.93c0-.15,0-.31-.07-.46C90.3,44.62,90.33,44.78,90.35,44.93Z" style="fill:#d0d8db"/><path d="M90.11,42.73c0-.15,0-.3-.07-.46C90.06,42.43,90.09,42.58,90.11,42.73Z" style="fill:#d0d8db"/><path d="M7.79,100.65l.33.57Z" style="fill:#d1dbdd"/><path d="M9.52,103.32l.39.53Z" style="fill:#d1dbdd"/><path d="M10.38,104.44l.42.5Z" style="fill:#d1dbdd"/><path d="M89.91,40.75c0-.15,0-.31-.07-.46C89.86,40.44,89.89,40.6,89.91,40.75Z" style="fill:#d0d8db"/><path d="M89.46,36.57c0-.15,0-.3-.07-.45C89.42,36.27,89.44,36.42,89.46,36.57Z" style="fill:#d0d8db"/><path d="M18.09,66.38c.14.4.27.8.4,1.19H18c-.14-.29-.29-.59-.44-.88Z" style="fill:#3c5c63"/><path d="M16.31,61.32l.33.54Z" style="fill:#3c5c63"/><path d="M8.41,64.92H7.65l.52-1.06Z" style="fill:#38575e"/><path d="M5.06,67c-.3.55-.6.55-.88,0Z" style="fill:#38575e"/><path d="M18,67.58h.47a.48.48,0,0,1,0,.2l-.94,0Z" style="fill:#38575e"/><path d="M14.82,64.91l-.68,0c.08-.18.15-.37.28-.69Z" style="fill:#38575e"/><path d="M3.28,66.49l-.75,0C2.82,65.76,3.06,66,3.28,66.49Z" style="fill:#38575e"/><path d="M72.38,52.41A23.55,23.55,0,0,1,64.92,57c-3,1.33-6,2.54-9,3.79a38,38,0,0,1-12.52,3,18.25,18.25,0,0,1-5-.45c-3-.69-6-1.61-9-2.46A32.75,32.75,0,0,1,18.51,55a9.17,9.17,0,0,0,3.72-3.76,6.44,6.44,0,0,0-1.66-7.85,6.07,6.07,0,0,0-7.88-.17A18.15,18.15,0,0,0,10.34,46c-4-7.23-5-14.65-1.05-22.19C12.82,17.09,18.69,13.7,26,12.59a15.74,15.74,0,0,1,6.92.69c2.66.79,5.31,1.66,7.9,2.65a39,39,0,0,1,4.07,2.18,43.09,43.09,0,0,1,13.42-4.68c6.28-1.25,11.78.5,16.84,4.11a19.82,19.82,0,0,1,5.57,5.53,15.66,15.66,0,0,1,1.79,11.85C82,37.55,81,40.09,80.23,42.67c-.27-.29-.57-.56-.81-.86-2.44-3.12-6.21-3.29-8.83-.32C67.1,45.46,68.43,51.08,72.38,52.41ZM44.11,31.55c-2.46,0-3.78,1.77-3.1,3.65q1.38,3.81,2.77,7.62a2.29,2.29,0,0,0,2,1.79,2.11,2.11,0,0,0,2.1-1.49c1.1-2.63,2.15-5.28,3.11-8a1.84,1.84,0,0,0-1.39-2.54C47.64,32.15,45.65,31.84,44.11,31.55Zm23.75,3.66c3.15,0,7-2.6,7.89-5.15.2-.59-.14-1.35-.22-2-.64.15-1.29.27-1.92.46-.22.07-.36.36-.56.52-.88.71-1.74,1.45-2.65,2.12a3.65,3.65,0,0,1-3.64.57c-2-.77-3.91-1.63-5.84-2.49-.61-.27-1.32-.78-1.73,0a1.91,1.91,0,0,0,.31,1.73A13.41,13.41,0,0,0,67.86,35.21ZM28,30.05c-1,.66-2,1.21-2.85,1.9-2.57,2.06-5.07,2.33-7.93.7-.82-.47-1.58-1-2.36-1.6-.54-.38-1.1-.91-1.75-.36s-.35,1.29,0,1.89a10.05,10.05,0,0,0,4.52,3.71,8.32,8.32,0,0,0,10.23-2.91A2.7,2.7,0,0,0,28,30.05Z" style="fill:#dae2e4"/><path d="M10.34,46a18.15,18.15,0,0,1,2.35-2.71,6.07,6.07,0,0,1,7.88.17,6.44,6.44,0,0,1,1.66,7.85A9.17,9.17,0,0,1,18.51,55c-2.87.44-5-1.08-6.89-2.85a5.39,5.39,0,0,1-1.44-4.93C10.24,46.83,10.29,46.4,10.34,46Z" style="fill:#728f97"/><path d="M72.38,52.41c-3.95-1.33-5.28-6.95-1.79-10.92,2.62-3,6.39-2.8,8.83.32.24.3.54.57.81.86a12.37,12.37,0,0,1,.43,2.13c.12,3.74-2.3,8.59-8,7.62Z" style="fill:#718f97"/><path d="M50.09,74.76A27.41,27.41,0,0,1,49,78.26a2.69,2.69,0,0,1-2.75,1.65A2.86,2.86,0,0,1,43.73,78a7.8,7.8,0,0,1-.34-5.17,16.18,16.18,0,0,1,1.3-3.71A2.64,2.64,0,0,1,46.34,68a2,2,0,0,1,2.08,1.14A17.5,17.5,0,0,1,50.09,74.76Z" style="fill:#e5c215"/><path d="M60.48,70.26c.39-1.93.68-3.89,1.22-5.78A2.89,2.89,0,0,1,63.25,63a1.6,1.6,0,0,1,1.93.91A9.57,9.57,0,0,1,66.45,72a3,3,0,0,1-3.33,2.4,3.2,3.2,0,0,1-2.46-3.22c0-.29,0-.58,0-.88Z" style="fill:#e5c215"/><path d="M54.35,88.09c.18-2.37.3-4.27.47-6.16a3.09,3.09,0,0,1,.44-1.23,1.34,1.34,0,0,1,2.46-.19,6,6,0,0,1,1.12,2,37.35,37.35,0,0,1,1.3,5.85,4.68,4.68,0,0,1-1,2.91,2.38,2.38,0,0,1-4.23-.64A13,13,0,0,1,54.35,88.09Z" style="fill:#e5c215"/><path d="M30.07,100.28a19.42,19.42,0,0,1-.89,2.9,2.42,2.42,0,0,1-2.47,1.5,2.28,2.28,0,0,1-2.16-1.9,18.76,18.76,0,0,1-.28-4.55,13.74,13.74,0,0,1,1-3.82c.23-.59,1-1.47,1.39-1.4a2.73,2.73,0,0,1,1.88,1.37C29.18,96.29,29.57,98.31,30.07,100.28Z" style="fill:#e5c215"/><path d="M44.18,104.29a38.58,38.58,0,0,1,1-4.48,2.67,2.67,0,0,1,1.46-1.4c.76-.3,1.41.24,1.78,1a11,11,0,0,1,1,8,2.22,2.22,0,0,1-1.87,1.79,2,2,0,0,1-2.3-1.31A32.43,32.43,0,0,1,44.18,104.29Z" style="fill:#d6e2e4"/><path d="M69.28,99.45a23.75,23.75,0,0,1-.94,3.28,2.08,2.08,0,0,1-2.19,1.33,2.29,2.29,0,0,1-2-1.66,8.2,8.2,0,0,1-.09-5c.18-.82.37-1.63.55-2.45a1.83,1.83,0,0,1,1.56-1.62A1.71,1.71,0,0,1,68,94.68C68.5,96.24,68.86,97.83,69.28,99.45Z" style="fill:#6f9097"/><path d="M79.76,12.1c0,3.89-.71,4.39-3.91,3.17a6.07,6.07,0,0,1-1.19-.53,1.85,1.85,0,0,1-.75-2.64c.83-1.54,1.72-3,2.62-4.55a1.61,1.61,0,0,1,1.8-.94c.91.2,1.16,1,1.23,1.74C79.68,9.76,79.72,11.18,79.76,12.1Z" style="fill:#35565d"/><path d="M39.14,103.23c-.26,1.4-.43,2.82-1.58,3.87s-2.92.71-3.19-.9a17.35,17.35,0,0,1,0-3.88c0-.87.25-1.73.37-2.59A1.36,1.36,0,0,1,37,98.67C38.62,99.74,38.88,101.48,39.14,103.23Z" style="fill:#6f9097"/><path d="M60.33,104.65a9.51,9.51,0,0,1-.67,2.43A2.23,2.23,0,0,1,58,108.16,2.55,2.55,0,0,1,56.26,107a5.38,5.38,0,0,1-.56-2.52,21.45,21.45,0,0,1,.43-4.23,2.05,2.05,0,0,1,1.21-1.34,2.1,2.1,0,0,1,1.69.61C60.23,100.78,60.18,102.49,60.33,104.65Z" style="fill:#d6e2e4"/><path d="M35.16,86.33a12,12,0,0,1,0-2.08c.11-.59.32-1.44.74-1.64a1.71,1.71,0,0,1,2.21.71c1.21,2.09,2,4.31,1.41,6.79-.32,1.27-1.06,1.89-2.1,1.88a2,2,0,0,1-2-1.86c-.25-1.24-.3-2.52-.43-3.79Z" style="fill:#d6e2e4"/><path d="M49.27,90.59c-.38,1.08-.69,2.16-1.16,3.16a1.81,1.81,0,0,1-2,1.07,1.6,1.6,0,0,1-1.51-1.5c-.09-1.33,0-2.66,0-4,0-.75.15-1.51.21-2.27s.34-1.65,1.28-1.81a1.64,1.64,0,0,1,2,1.18C48.53,87.76,48.87,89.13,49.27,90.59Z" style="fill:#6e9097"/><path d="M24.75,84.73c.19-1.22.37-2.45.57-3.67A1.93,1.93,0,0,1,29,80.71,9,9,0,0,1,29.42,86c-.4,1.45-1.48,2.37-2.61,2.22s-1.91-1.27-2-2.81v-.66Z" style="fill:#d5e2e4"/><path d="M34.91,70.56a23,23,0,0,1,.33-3.36,2.3,2.3,0,0,1,1.07-1.48,2,2,0,0,1,1.67.42c1.75,1.39,2.29,5.06,1.12,7A2.12,2.12,0,0,1,37,74.2a1.89,1.89,0,0,1-1.7-1.48A13.18,13.18,0,0,1,34.91,70.56Z" style="fill:#d5e2e4"/><path d="M26,70.16c.06-1,.13-2,.2-3s.31-1.7,1.31-1.91a1.86,1.86,0,0,1,2.11,1.21,8,8,0,0,1,.72,5.51,2.49,2.49,0,0,1-2,2,2.35,2.35,0,0,1-2.07-2c-.14-.6-.21-1.21-.32-1.82Z" style="fill:#6f9097"/><path d="M9.05,11.4c0-.15,0-.29,0-.44,0-.84-.18-1.92.78-2.15a3.09,3.09,0,0,1,2.1.79A18.66,18.66,0,0,1,14.37,12a1.74,1.74,0,0,1-.54,3,21.52,21.52,0,0,1-2.2,1,1.71,1.71,0,0,1-2.42-1.53c-.08-1-.12-2-.18-2.94Z" style="fill:#35565d"/><path d="M57.83,70.57A28.08,28.08,0,0,1,57,73.33a1.88,1.88,0,0,1-2,1.28A1.61,1.61,0,0,1,53.41,73a37.19,37.19,0,0,1,.36-4.94c.12-.92.33-2.17,1.46-2.11.61,0,1.33,1,1.71,1.72A16.08,16.08,0,0,1,57.83,70.57Z" style="fill:#6f9097"/><path d="M63,84.92a28.6,28.6,0,0,1,.71-3.62A2.06,2.06,0,0,1,64.92,80c.47-.07,1.17.46,1.53.92A5.16,5.16,0,0,1,67,86.3,2.37,2.37,0,0,1,64.72,88c-1-.16-1.6-1.08-1.63-2.4v-.66Z" style="fill:#6e9097"/><path d="M73,110.9q4.53,12.82,9,25.63c0,.14,0,.33-.2.54-3.41-8.52-6.79-17-9.72-25.72Z" style="fill:#d2dbde"/><path d="M66,114.13c1,5.09,2,10.19,3.09,15.27.65,3,1.52,6,2.25,9a10.77,10.77,0,0,1,.23,2.84,203.41,203.41,0,0,1-6.44-26.86Z" style="fill:#d2dbde"/><path d="M16.72,88.22c1.38.52,2.35-.18,3.24-1.09h.24c0,.37-.05.73-.07,1.1l-.15.65c-.11.71-.37,1.28-1.19,1.38h-1.3l-.78-.51c-.07-.28-.15-.57-.22-.86Z" style="fill:#34525a"/><path d="M17.49,90.27h1.3C18.36,90.81,17.92,90.8,17.49,90.27Z" style="fill:#3c5c63"/><path d="M16.49,88.9c.07.29.15.58.22.86h-.48C16.32,89.48,16.4,89.19,16.49,88.9Z" style="fill:#3c5c63"/><path d="M20.35,78.57c-.05-.36-.09-.73-.13-1.09C20.26,77.84,20.3,78.21,20.35,78.57Z" style="fill:#3c5c63"/><path d="M20.2,87.14H20c.12-.44.23-.88.34-1.32h0Z" style="fill:#3c5c63"/><path d="M19.77,77c.1-.36.19-.71.28-1.06L20.2,77Z" style="fill:#3c5c63"/><path d="M20,88.89l.15-.65Z" style="fill:#3c5c63"/><path d="M16.05,95.5l.12-.66Z" style="fill:#3c5c63"/><path d="M72.78,66.7c0,.21,0,.42.07.63l-.47,0Z" style="fill:#38565e"/><path d="M19.89,74.4l-.1-.45Z" style="fill:#3c5c63"/><path d="M19.66,72.86c0-.15-.07-.29-.11-.44C19.59,72.57,19.62,72.71,19.66,72.86Z" style="fill:#3c5c63"/><path d="M15.82,97.25c0-.14.07-.29.11-.44C15.89,97,15.86,97.11,15.82,97.25Z" style="fill:#3c5c63"/><path d="M89.32,64.72c.2-.35.4-.7.69-1.19l.32,1.19Z" style="fill:#38565e"/><path d="M82.45,65.16l.6-1.21c.1.56.17.89.23,1.21Z" style="fill:#38565e"/><path d="M88.06,76.19c-.19.21-.37.43-.55.64C87.69,76.62,87.87,76.4,88.06,76.19Z" style="fill:#38565e"/><path d="M88.27,66.22l.53-.67Z" style="fill:#38565e"/><path d="M88.43,70v-.67h.1V70Z" style="fill:#38565e"/><path d="M88.19,72v-.4l.1,0,.08.43Z" style="fill:#38565e"/><path d="M73.68,77.76h0Z" style="fill:#38565e"/><path d="M86.87,77.32l-.51.08Z" style="fill:#38565e"/><path d="M76.42,63.37l.3-.37.16.4Z" style="fill:#38565e"/><path d="M78,75.73l-.1-.46Z" style="fill:#38565e"/><path d="M84.61,74.84l-.12-.45Z" style="fill:#38565e"/><path d="M85.52,67.65H86l-.22.28Z" style="fill:#38565e"/><path d="M87.79,75.1v-.32h.08v.32Z" style="fill:#38565e"/><path d="M88.09,73.24v.33H88v-.33Z" style="fill:#38565e"/><path d="M10.78,77.72,10,77.5Z" style="fill:#38575e"/><path d="M7.18,88l.33-.91.31.63Z" style="fill:#3c5c63"/><path d="M14.48,85.82l.14-.33.26.35Z" style="fill:#3c5c63"/><path d="M44.11,31.55c1.54.29,3.53.6,5.48,1.07A1.84,1.84,0,0,1,51,35.16c-1,2.68-2,5.33-3.11,8a2.11,2.11,0,0,1-2.1,1.49,2.29,2.29,0,0,1-2-1.79Q42.39,39,41,35.2C40.33,33.32,41.65,31.52,44.11,31.55Z" style="fill:#eac215"/><path d="M67.86,35.21a13.41,13.41,0,0,1-8.36-4.3,1.91,1.91,0,0,1-.31-1.73c.41-.75,1.12-.24,1.73,0,1.93.86,3.87,1.72,5.84,2.49a3.65,3.65,0,0,0,3.64-.57c.91-.67,1.77-1.41,2.65-2.12.2-.16.34-.45.56-.52.63-.19,1.28-.31,1.92-.46.08.68.42,1.44.22,2C74.91,32.61,71,35.21,67.86,35.21Z" style="fill:#241a1c"/><path d="M28,30.05a2.7,2.7,0,0,1-.11,3.33,8.32,8.32,0,0,1-10.23,2.91,10.05,10.05,0,0,1-4.52-3.71c-.38-.6-.73-1.31,0-1.89s1.21,0,1.75.36c.78.55,1.54,1.13,2.36,1.6,2.86,1.63,5.36,1.36,7.93-.7C26,31.26,27,30.71,28,30.05Z" style="fill:#241a1c"/></g></g></svg>